<svg width="330" height="154" viewBox="0 0 330 154" fill="none" xmlns="http://www.w3.org/2000/svg">
<path d="M-4.5 157V61.7393C-4.25273 61.5192 -3.91316 61.2201 -3.48681 60.8514C-2.50099 59.9989 -1.05172 58.7751 0.792911 57.2981C4.48347 54.3432 9.74972 50.3805 16.0475 46.353C28.6853 38.2708 45.2988 30.0437 61.5961 28.9969C75.8984 28.0783 93.304 25.3069 111.803 22.3614C114.994 21.8533 118.218 21.3399 121.464 20.83C143.578 17.3565 166.774 14.0325 188.038 13.4995C209.466 12.9624 246.765 9.95755 278.663 7.0922C294.622 5.65871 309.244 4.25875 319.876 3.21718C325.192 2.69639 329.511 2.26517 332.501 1.96413C333.735 1.83994 334.742 1.73791 335.5 1.66087V157C335.5 160.59 332.59 163.5 329 163.5H1.99999C-1.58986 163.5 -4.5 160.59 -4.5 157Z" fill="url(#paint0_linear)"/>
<path d="M-4.5 157V61.7393C-4.25273 61.5192 -3.91316 61.2201 -3.48681 60.8514C-2.50099 59.9989 -1.05172 58.7751 0.792911 57.2981C4.48347 54.3432 9.74972 50.3805 16.0475 46.353C28.6853 38.2708 45.2988 30.0437 61.5961 28.9969C75.8984 28.0783 93.304 25.3069 111.803 22.3614C114.994 21.8533 118.218 21.3399 121.464 20.83C143.578 17.3565 166.774 14.0325 188.038 13.4995C209.466 12.9624 246.765 9.95755 278.663 7.0922C294.622 5.65871 309.244 4.25875 319.876 3.21718C325.192 2.69639 329.511 2.26517 332.501 1.96413C333.735 1.83994 334.742 1.73791 335.5 1.66087V157C335.5 160.59 332.59 163.5 329 163.5H1.99999C-1.58986 163.5 -4.5 160.59 -4.5 157Z" fill="white" fill-opacity="0.2"/>
<path d="M-4.5 157V61.7393C-4.25273 61.5192 -3.91316 61.2201 -3.48681 60.8514C-2.50099 59.9989 -1.05172 58.7751 0.792911 57.2981C4.48347 54.3432 9.74972 50.3805 16.0475 46.353C28.6853 38.2708 45.2988 30.0437 61.5961 28.9969C75.8984 28.0783 93.304 25.3069 111.803 22.3614C114.994 21.8533 118.218 21.3399 121.464 20.83C143.578 17.3565 166.774 14.0325 188.038 13.4995C209.466 12.9624 246.765 9.95755 278.663 7.0922C294.622 5.65871 309.244 4.25875 319.876 3.21718C325.192 2.69639 329.511 2.26517 332.501 1.96413C333.735 1.83994 334.742 1.73791 335.5 1.66087V157C335.5 160.59 332.59 163.5 329 163.5H1.99999C-1.58986 163.5 -4.5 160.59 -4.5 157Z" stroke="#F98600" stroke-width="3"/>
<defs>
<linearGradient id="paint0_linear" x1="170.5" y1="2.66626e-07" x2="169.5" y2="150.5" gradientUnits="userSpaceOnUse">
<stop stop-color="#F98600"/>
<stop offset="1" stop-color="white" stop-opacity="0"/>
</linearGradient>
</defs>
</svg>
