<svg width="330" height="154" viewBox="0 0 330 154" fill="none" xmlns="http://www.w3.org/2000/svg">
<path d="M-4.5 157V61.7567C-4.22255 61.5187 -3.83481 61.1891 -3.34512 60.7798C-2.25812 59.8712 -0.669294 58.5703 1.33032 57.0079C5.33112 53.8819 10.9683 49.7154 17.5148 45.5514C30.6851 37.1742 47.2429 29 61.5 29C62.9594 29 64.1761 29.7176 65.5563 30.8347C65.8827 31.0989 66.204 31.373 66.5399 31.6596L66.5861 31.699C66.9329 31.9948 67.2963 32.3042 67.6658 32.5991C68.3988 33.1841 69.2284 33.7728 70.1669 34.1688C71.1309 34.5756 72.2075 34.7782 73.4045 34.5967C74.5849 34.4178 75.7751 33.8817 77.0076 32.9849C79.433 31.22 82.2439 27.8918 85.7662 22.3463C89.2312 16.8908 91.8979 14.1969 93.9764 13.0363C94.9848 12.4733 95.8313 12.2845 96.5663 12.2934C97.3094 12.3025 98.0402 12.5151 98.8101 12.9043C99.5915 13.2993 100.373 13.8551 101.216 14.5154C101.513 14.7481 101.834 15.0074 102.166 15.2755C102.713 15.7178 103.29 16.1838 103.837 16.5931C105.649 17.9486 107.875 19.2787 110.633 19.0328C135.017 16.858 159.976 19.3742 188.017 28.92C199.905 32.967 208.744 33.8839 215.73 32.8327C222.75 31.7761 227.753 28.7529 231.981 25.2058C234.015 23.4993 235.882 21.6607 237.686 19.8842L237.854 19.7192C239.725 17.8769 241.532 16.1075 243.469 14.5213C247.306 11.3804 251.605 9.00019 257.625 8.49474C269.88 7.46589 289.758 5.71558 306.57 4.22274C314.977 3.47627 322.618 2.79408 328.157 2.29852C330.927 2.05073 333.171 1.8496 334.723 1.71041L335.5 1.64068V157C335.5 160.59 332.59 163.5 329 163.5H1.99999C-1.58986 163.5 -4.5 160.59 -4.5 157Z" fill="url(#paint0_linear)"/>
<path d="M-4.5 157V61.7567C-4.22255 61.5187 -3.83481 61.1891 -3.34512 60.7798C-2.25812 59.8712 -0.669294 58.5703 1.33032 57.0079C5.33112 53.8819 10.9683 49.7154 17.5148 45.5514C30.6851 37.1742 47.2429 29 61.5 29C62.9594 29 64.1761 29.7176 65.5563 30.8347C65.8827 31.0989 66.204 31.373 66.5399 31.6596L66.5861 31.699C66.9329 31.9948 67.2963 32.3042 67.6658 32.5991C68.3988 33.1841 69.2284 33.7728 70.1669 34.1688C71.1309 34.5756 72.2075 34.7782 73.4045 34.5967C74.5849 34.4178 75.7751 33.8817 77.0076 32.9849C79.433 31.22 82.2439 27.8918 85.7662 22.3463C89.2312 16.8908 91.8979 14.1969 93.9764 13.0363C94.9848 12.4733 95.8313 12.2845 96.5663 12.2934C97.3094 12.3025 98.0402 12.5151 98.8101 12.9043C99.5915 13.2993 100.373 13.8551 101.216 14.5154C101.513 14.7481 101.834 15.0074 102.166 15.2755C102.713 15.7178 103.29 16.1838 103.837 16.5931C105.649 17.9486 107.875 19.2787 110.633 19.0328C135.017 16.858 159.976 19.3742 188.017 28.92C199.905 32.967 208.744 33.8839 215.73 32.8327C222.75 31.7761 227.753 28.7529 231.981 25.2058C234.015 23.4993 235.882 21.6607 237.686 19.8842L237.854 19.7192C239.725 17.8769 241.532 16.1075 243.469 14.5213C247.306 11.3804 251.605 9.00019 257.625 8.49474C269.88 7.46589 289.758 5.71558 306.57 4.22274C314.977 3.47627 322.618 2.79408 328.157 2.29852C330.927 2.05073 333.171 1.8496 334.723 1.71041L335.5 1.64068V157C335.5 160.59 332.59 163.5 329 163.5H1.99999C-1.58986 163.5 -4.5 160.59 -4.5 157Z" fill="white" fill-opacity="0.2"/>
<path d="M-4.5 157V61.7567C-4.22255 61.5187 -3.83481 61.1891 -3.34512 60.7798C-2.25812 59.8712 -0.669294 58.5703 1.33032 57.0079C5.33112 53.8819 10.9683 49.7154 17.5148 45.5514C30.6851 37.1742 47.2429 29 61.5 29C62.9594 29 64.1761 29.7176 65.5563 30.8347C65.8827 31.0989 66.204 31.373 66.5399 31.6596L66.5861 31.699C66.9329 31.9948 67.2963 32.3042 67.6658 32.5991C68.3988 33.1841 69.2284 33.7728 70.1669 34.1688C71.1309 34.5756 72.2075 34.7782 73.4045 34.5967C74.5849 34.4178 75.7751 33.8817 77.0076 32.9849C79.433 31.22 82.2439 27.8918 85.7662 22.3463C89.2312 16.8908 91.8979 14.1969 93.9764 13.0363C94.9848 12.4733 95.8313 12.2845 96.5663 12.2934C97.3094 12.3025 98.0402 12.5151 98.8101 12.9043C99.5915 13.2993 100.373 13.8551 101.216 14.5154C101.513 14.7481 101.834 15.0074 102.166 15.2755C102.713 15.7178 103.29 16.1838 103.837 16.5931C105.649 17.9486 107.875 19.2787 110.633 19.0328C135.017 16.858 159.976 19.3742 188.017 28.92C199.905 32.967 208.744 33.8839 215.73 32.8327C222.75 31.7761 227.753 28.7529 231.981 25.2058C234.015 23.4993 235.882 21.6607 237.686 19.8842L237.854 19.7192C239.725 17.8769 241.532 16.1075 243.469 14.5213C247.306 11.3804 251.605 9.00019 257.625 8.49474C269.88 7.46589 289.758 5.71558 306.57 4.22274C314.977 3.47627 322.618 2.79408 328.157 2.29852C330.927 2.05073 333.171 1.8496 334.723 1.71041L335.5 1.64068V157C335.5 160.59 332.59 163.5 329 163.5H1.99999C-1.58986 163.5 -4.5 160.59 -4.5 157Z" stroke="#00BA34" stroke-width="3"/>
<defs>
<linearGradient id="paint0_linear" x1="170.5" y1="4.76872e-07" x2="169.5" y2="150.5" gradientUnits="userSpaceOnUse">
<stop stop-color="#00BA34"/>
<stop offset="1" stop-color="white" stop-opacity="0"/>
</linearGradient>
</defs>
</svg>
