<svg width="288" height="185" viewBox="0 0 288 185" fill="none" xmlns="http://www.w3.org/2000/svg">
<path d="M203.5 73.4999C222.948 87.6795 237.939 110.596 240.5 133.026C240.586 133.781 240.667 134.558 240.741 135.351C241.087 139.067 244.3 142 248.286 142C252.518 142 255.989 138.706 255.611 134.762C255.555 134.183 255.494 133.604 255.428 133.026C252.301 105.632 237.576 80.4422 213.821 63.1226C166.069 28.3062 97.1752 36.1352 59.9418 80.6092C46.461 96.7116 38.906 115.573 37.1565 134.759C36.7923 138.754 40.2315 142 44.5046 142C48.7345 142 52.2084 138.815 52.6813 134.87C54.6823 118.176 61.6098 101.008 72.5 87.9999C102.964 51.6121 164.43 45.0138 203.5 73.4999Z" fill="white"/>
<path d="M203.5 73.4999C222.948 87.6795 237.939 110.596 240.5 133.026C240.586 133.781 240.667 134.558 240.741 135.351C241.087 139.067 244.3 142 248.286 142C252.518 142 255.989 138.706 255.611 134.762C255.555 134.183 255.494 133.604 255.428 133.026C252.301 105.632 237.576 80.4422 213.821 63.1226C166.069 28.3062 97.1752 36.1352 59.9418 80.6092C46.461 96.7116 38.906 115.573 37.1565 134.759C36.7923 138.754 40.2315 142 44.5046 142C48.7345 142 52.2084 138.815 52.6813 134.87C54.6823 118.176 61.6098 101.008 72.5 87.9999C102.964 51.6121 164.43 45.0138 203.5 73.4999Z" fill="#0085FF" fill-opacity="0.1"/>
<path d="M58.5029 140.947L58.4494 141.444L59.4436 141.551L59.4971 141.053L58.5029 140.947ZM59.4981 141.044C59.5286 140.77 59.3308 140.523 59.0563 140.492C58.7819 140.462 58.5347 140.66 58.5042 140.934L59.4981 141.044ZM59.9263 133.068C59.8654 133.337 60.0344 133.605 60.3037 133.666C60.573 133.727 60.8408 133.558 60.9017 133.289L59.9263 133.068ZM60.9229 133.195C60.984 132.926 60.8153 132.658 60.546 132.597C60.2768 132.536 60.0089 132.704 59.9477 132.974L60.9229 133.195ZM61.9937 125.261C61.9136 125.525 62.0629 125.804 62.3272 125.884C62.5915 125.964 62.8706 125.815 62.9507 125.551L61.9937 125.261ZM62.9787 125.459C63.059 125.195 62.9099 124.915 62.6457 124.835C62.3815 124.755 62.1022 124.904 62.0219 125.168L62.9787 125.459ZM64.5974 117.643C64.4989 117.901 64.6282 118.19 64.8862 118.288C65.1442 118.387 65.4331 118.257 65.5316 117.999L64.5974 117.643ZM65.5668 117.907C65.6655 117.649 65.5365 117.36 65.2786 117.262C65.0207 117.163 64.7316 117.292 64.6329 117.55L65.5668 117.907ZM67.7474 110.215C67.6302 110.465 67.7379 110.763 67.9879 110.88C68.238 110.997 68.5357 110.89 68.6529 110.64L67.7474 110.215ZM68.6949 110.55C68.8124 110.3 68.705 110.002 68.4551 109.885C68.2051 109.768 67.9073 109.875 67.7899 110.125L68.6949 110.55ZM71.4549 103.049C71.3183 103.289 71.4021 103.594 71.6421 103.731C71.882 103.867 72.1873 103.784 72.3239 103.544L71.4549 103.049ZM72.3728 103.458C72.5097 103.218 72.4262 102.913 72.1863 102.776C71.9465 102.639 71.6411 102.722 71.5042 102.962L72.3728 103.458ZM75.7411 96.2088C75.5845 96.4362 75.6418 96.7476 75.8692 96.9042C76.0966 97.0609 76.408 97.0035 76.5646 96.7761L75.7411 96.2088ZM76.6204 96.6952C76.7773 96.468 76.7203 96.1566 76.4931 95.9997C76.2659 95.8428 75.9545 95.8998 75.7976 96.127L76.6204 96.6952ZM80.6246 89.773C80.4475 89.9849 80.4757 90.3002 80.6876 90.4773C80.8995 90.6543 81.2148 90.6261 81.3919 90.4142L80.6246 89.773ZM81.4546 90.3393C81.632 90.1276 81.6041 89.8122 81.3924 89.6349C81.1808 89.4576 80.8654 89.4854 80.6881 89.6971L81.4546 90.3393ZM86.1001 83.8409C85.9028 84.0341 85.8996 84.3507 86.0928 84.5479C86.2861 84.7452 86.6026 84.7485 86.7999 84.5552L86.1001 83.8409ZM86.8708 84.4858C87.0683 84.2929 87.0719 83.9763 86.8789 83.7788C86.6859 83.5813 86.3694 83.5776 86.1719 83.7706L86.8708 84.4858ZM92.1514 78.5008C91.935 78.6723 91.8986 78.9868 92.0701 79.2032C92.2417 79.4196 92.5562 79.456 92.7726 79.2844L92.1514 78.5008ZM92.8497 79.2234C93.0663 79.0521 93.1031 78.7377 92.9319 78.521C92.7606 78.3044 92.4462 78.2676 92.2295 78.4389L92.8497 79.2234ZM98.7542 73.8237C98.5206 73.9709 98.4505 74.2796 98.5976 74.5133C98.7448 74.7469 99.0535 74.8171 99.2872 74.6699L98.7542 73.8237ZM99.3694 74.6182C99.6033 74.4713 99.6738 74.1627 99.527 73.9288C99.3801 73.695 99.0715 73.6244 98.8376 73.7713L99.3694 74.6182ZM105.796 69.9029C105.548 70.0241 105.445 70.3235 105.566 70.5716C105.687 70.8198 105.987 70.9227 106.235 70.8015L105.796 69.9029ZM106.324 70.7583C106.572 70.6375 106.675 70.3382 106.554 70.0899C106.434 69.8416 106.134 69.7383 105.886 69.8591L106.324 70.7583ZM113.252 66.7397C112.992 66.8342 112.859 67.1211 112.953 67.3806C113.047 67.6401 113.334 67.7739 113.594 67.6794L113.252 66.7397ZM113.687 67.6455C113.947 67.5514 114.081 67.2647 113.987 67.0051C113.893 66.7454 113.606 66.6113 113.346 66.7054L113.687 67.6455ZM120.941 64.3693C120.674 64.4377 120.512 64.71 120.581 64.9775C120.649 65.2451 120.921 65.4065 121.189 65.3382L120.941 64.3693ZM121.284 65.314C121.551 65.246 121.713 64.9738 121.645 64.7062C121.577 64.4386 121.305 64.2768 121.037 64.3448L121.284 65.314ZM128.841 62.7374C128.569 62.781 128.383 63.0374 128.427 63.3101C128.47 63.5828 128.727 63.7685 128.999 63.7249L128.841 62.7374ZM129.097 63.7093C129.37 63.666 129.556 63.4098 129.513 63.137C129.469 62.8643 129.213 62.6783 128.941 62.7216L129.097 63.7093ZM136.869 61.8004C136.594 61.8211 136.387 62.0612 136.408 62.3365C136.429 62.6119 136.669 62.8183 136.944 62.7975L136.869 61.8004ZM137.044 62.79C137.32 62.7695 137.526 62.5297 137.506 62.2543C137.485 61.9789 137.245 61.7723 136.97 61.7928L137.044 62.79ZM144.949 61.5C144.673 61.5001 144.449 61.7241 144.449 62.0002C144.449 62.2764 144.673 62.5001 144.949 62.5L144.949 61.5ZM145.051 62.5C145.328 62.5001 145.551 62.2764 145.552 62.0002C145.552 61.7241 145.328 61.5001 145.052 61.5L145.051 62.5ZM153.151 61.8008C152.875 61.7801 152.635 61.9866 152.615 62.2619C152.594 62.5373 152.8 62.7773 153.076 62.798L153.151 61.8008ZM153.177 62.8057C153.452 62.8267 153.693 62.6205 153.714 62.3451C153.735 62.0698 153.528 61.8296 153.253 61.8086L153.177 62.8057ZM161.298 62.7509C161.025 62.7073 160.768 62.8931 160.725 63.1657C160.681 63.4384 160.867 63.6948 161.14 63.7384L161.298 62.7509ZM161.239 63.7543C161.512 63.7981 161.768 63.6127 161.812 63.34C161.856 63.0674 161.671 62.8108 161.398 62.767L161.239 63.7543ZM169.315 64.4023C169.048 64.3342 168.775 64.496 168.707 64.7636C168.639 65.0312 168.801 65.3033 169.069 65.3714L169.315 64.4023ZM169.165 65.3959C169.432 65.4643 169.705 65.3028 169.773 65.0353C169.841 64.7677 169.68 64.4954 169.412 64.4271L169.165 65.3959ZM177.129 66.7935C176.869 66.6999 176.582 66.8346 176.489 67.0944C176.395 67.3542 176.53 67.6407 176.79 67.7343L177.129 66.7935ZM176.885 67.7688C177.145 67.8627 177.432 67.7284 177.526 67.4687C177.619 67.209 177.485 66.9224 177.225 66.8284L176.885 67.7688ZM184.706 69.9661C184.457 69.8466 184.158 69.9515 184.039 70.2004C183.919 70.4493 184.024 70.748 184.273 70.8676L184.706 69.9661ZM184.363 70.9109C184.612 71.0308 184.911 70.9263 185.031 70.6775C185.15 70.4288 185.046 70.1299 184.797 70.01L184.363 70.9109ZM191.885 73.8828C191.649 73.7381 191.341 73.8116 191.197 74.0468C191.052 74.2821 191.126 74.59 191.361 74.7346L191.885 73.8828ZM191.446 74.7868C191.681 74.9317 191.989 74.8587 192.134 74.6236C192.279 74.3885 192.205 74.0805 191.97 73.9356L191.446 74.7868ZM198.648 78.5394C198.429 78.3714 198.115 78.4127 197.947 78.6318C197.779 78.8509 197.82 79.1648 198.039 79.3328L198.648 78.5394ZM198.118 79.3937C198.337 79.562 198.651 79.5211 198.819 79.3022C198.988 79.0833 198.947 78.7694 198.728 78.601L198.118 79.3937ZM204.887 83.8439C204.686 83.6549 204.369 83.6648 204.18 83.8661C203.991 84.0673 204.001 84.3838 204.202 84.5728L204.887 83.8439ZM204.276 84.6418C204.477 84.8311 204.793 84.8215 204.982 84.6205C205.172 84.4194 205.162 84.103 204.961 83.9137L204.276 84.6418ZM210.583 89.7306C210.4 89.5234 210.085 89.5034 209.877 89.6859C209.67 89.8684 209.65 90.1844 209.833 90.3916L210.583 89.7306ZM209.898 90.4661C210.08 90.6735 210.396 90.6939 210.604 90.5116C210.811 90.3293 210.832 90.0134 210.649 89.8059L209.898 90.4661ZM215.721 96.1185C215.558 95.896 215.245 95.8481 215.022 96.0116C214.799 96.1751 214.752 96.4881 214.915 96.7106L215.721 96.1185ZM214.974 96.791C215.137 97.0137 215.45 97.0619 215.673 96.8986C215.896 96.7353 215.944 96.4225 215.781 96.1997L214.974 96.791ZM220.293 102.915C220.148 102.679 219.84 102.606 219.605 102.751C219.37 102.896 219.296 103.204 219.441 103.439L220.293 102.915ZM219.493 103.524C219.638 103.759 219.946 103.833 220.181 103.689C220.416 103.544 220.49 103.236 220.346 103.001L219.493 103.524ZM224.312 110.047C224.186 109.802 223.884 109.705 223.639 109.832C223.393 109.958 223.297 110.26 223.423 110.505L224.312 110.047ZM223.469 110.595C223.595 110.84 223.897 110.937 224.142 110.811C224.388 110.685 224.485 110.383 224.359 110.138L223.469 110.595ZM227.797 117.457C227.688 117.203 227.394 117.085 227.14 117.194C226.887 117.302 226.769 117.596 226.877 117.85L227.797 117.457ZM226.917 117.942C227.025 118.196 227.319 118.314 227.573 118.206C227.827 118.098 227.945 117.804 227.836 117.55L226.917 117.942ZM230.752 125.078C230.661 124.817 230.376 124.68 230.115 124.771C229.855 124.862 229.717 125.147 229.808 125.408L230.752 125.078ZM229.84 125.5C229.931 125.761 230.216 125.898 230.477 125.808C230.738 125.717 230.875 125.432 230.785 125.171L229.84 125.5ZM233.184 132.905C233.111 132.639 232.836 132.482 232.57 132.554C232.303 132.627 232.146 132.901 232.219 133.168L233.184 132.905ZM232.244 133.262C232.316 133.528 232.591 133.686 232.857 133.614C233.124 133.541 233.281 133.267 233.209 133L232.244 133.262ZM234.992 140.912C234.95 140.639 234.694 140.452 234.422 140.495C234.149 140.537 233.962 140.793 234.004 141.066L234.992 140.912ZM59 141C59.4971 141.053 59.4971 141.053 59.4971 141.053C59.4971 141.053 59.4971 141.053 59.4971 141.053C59.4971 141.053 59.4971 141.053 59.4971 141.053C59.4971 141.054 59.4971 141.054 59.4971 141.054C59.4971 141.054 59.4971 141.054 59.4971 141.054C59.4971 141.054 59.4971 141.054 59.4971 141.054C59.4971 141.054 59.4971 141.054 59.4971 141.054C59.4971 141.053 59.4971 141.053 59.4972 141.053C59.4972 141.053 59.4973 141.052 59.4973 141.052C59.4975 141.05 59.4978 141.048 59.4981 141.044L58.5042 140.934C58.5038 140.938 58.5035 140.941 58.5033 140.943C58.5031 140.944 58.5031 140.945 58.503 140.945C58.503 140.946 58.5029 140.946 58.5029 140.946C58.5029 140.946 58.5029 140.946 58.5029 140.946C58.5029 140.946 58.5029 140.946 58.5029 140.946C58.5029 140.946 58.5029 140.946 58.5029 140.946C58.5029 140.946 58.5029 140.946 58.5029 140.946C58.5029 140.947 58.5029 140.947 58.5029 140.947C58.5029 140.947 58.5029 140.947 58.5029 140.947C58.5029 140.947 58.5029 140.947 59 141ZM60.9017 133.289C60.9087 133.258 60.9158 133.226 60.9229 133.195L59.9477 132.974C59.9405 133.005 59.9334 133.037 59.9263 133.068L60.9017 133.289ZM62.9507 125.551C62.96 125.52 62.9693 125.489 62.9787 125.459L62.0219 125.168C62.0125 125.199 62.0031 125.23 61.9937 125.261L62.9507 125.551ZM65.5316 117.999C65.5433 117.969 65.5551 117.938 65.5668 117.907L64.6329 117.55C64.621 117.581 64.6092 117.612 64.5974 117.643L65.5316 117.999ZM68.6529 110.64C68.6669 110.61 68.6809 110.58 68.6949 110.55L67.7899 110.125C67.7757 110.155 67.7616 110.185 67.7474 110.215L68.6529 110.64ZM72.3239 103.544C72.3402 103.515 72.3565 103.486 72.3728 103.458L71.5042 102.962C71.4878 102.991 71.4713 103.02 71.4549 103.049L72.3239 103.544ZM76.5646 96.7761C76.5832 96.7492 76.6018 96.7222 76.6204 96.6952L75.7976 96.127C75.7787 96.1543 75.7599 96.1815 75.7411 96.2088L76.5646 96.7761ZM81.3919 90.4142C81.4128 90.3892 81.4337 90.3642 81.4546 90.3393L80.6881 89.6971C80.6669 89.7224 80.6457 89.7477 80.6246 89.773L81.3919 90.4142ZM86.7999 84.5552C86.8235 84.5321 86.8471 84.509 86.8708 84.4858L86.1719 83.7706C86.1479 83.794 86.124 83.8174 86.1001 83.8409L86.7999 84.5552ZM92.7726 79.2844C92.7982 79.2641 92.824 79.2437 92.8497 79.2234L92.2295 78.4389C92.2035 78.4595 92.1774 78.4801 92.1514 78.5008L92.7726 79.2844ZM99.2872 74.6699C99.3146 74.6526 99.342 74.6354 99.3694 74.6182L98.8376 73.7713C98.8098 73.7888 98.782 73.8062 98.7542 73.8237L99.2872 74.6699ZM106.235 70.8015C106.265 70.7871 106.294 70.7727 106.324 70.7583L105.886 69.8591C105.856 69.8737 105.826 69.8883 105.796 69.9029L106.235 70.8015ZM113.594 67.6794C113.625 67.6681 113.656 67.6568 113.687 67.6455L113.346 66.7054C113.315 66.7168 113.283 66.7283 113.252 66.7397L113.594 67.6794ZM121.189 65.3382C121.221 65.3301 121.252 65.322 121.284 65.314L121.037 64.3448C121.005 64.353 120.973 64.3611 120.941 64.3693L121.189 65.3382ZM128.999 63.7249C129.032 63.7197 129.065 63.7145 129.097 63.7093L128.941 62.7216C128.908 62.7269 128.874 62.7322 128.841 62.7374L128.999 63.7249ZM136.944 62.7975C136.977 62.795 137.011 62.7925 137.044 62.79L136.97 61.7928C136.936 61.7953 136.903 61.7978 136.869 61.8004L136.944 62.7975ZM144.949 62.5C144.966 62.5 144.983 62.5 145 62.5V61.5C144.983 61.5 144.966 61.5 144.949 61.5L144.949 62.5ZM145 62.5C145.017 62.5 145.034 62.5 145.051 62.5L145.052 61.5C145.035 61.5 145.017 61.5 145 61.5V62.5ZM153.076 62.798C153.109 62.8006 153.143 62.8031 153.177 62.8057L153.253 61.8086C153.219 61.806 153.185 61.8034 153.151 61.8008L153.076 62.798ZM161.14 63.7384C161.173 63.7436 161.206 63.749 161.239 63.7543L161.398 62.767C161.364 62.7616 161.331 62.7562 161.298 62.7509L161.14 63.7384ZM169.069 65.3714C169.101 65.3796 169.133 65.3877 169.165 65.3959L169.412 64.4271C169.38 64.4188 169.348 64.4105 169.315 64.4023L169.069 65.3714ZM176.79 67.7343C176.822 67.7458 176.853 67.7573 176.885 67.7688L177.225 66.8284C177.193 66.8168 177.161 66.8051 177.129 66.7935L176.79 67.7343ZM184.273 70.8676C184.303 70.882 184.333 70.8964 184.363 70.9109L184.797 70.01C184.767 69.9954 184.736 69.9808 184.706 69.9661L184.273 70.8676ZM191.361 74.7346C191.389 74.752 191.417 74.7694 191.446 74.7868L191.97 73.9356C191.942 73.918 191.913 73.9004 191.885 73.8828L191.361 74.7346ZM198.039 79.3328C198.065 79.3531 198.092 79.3734 198.118 79.3937L198.728 78.601C198.701 78.5805 198.674 78.5599 198.648 78.5394L198.039 79.3328ZM204.202 84.5728C204.227 84.5958 204.251 84.6188 204.276 84.6418L204.961 83.9137C204.936 83.8904 204.912 83.8672 204.887 83.8439L204.202 84.5728ZM209.833 90.3916C209.854 90.4164 209.876 90.4413 209.898 90.4661L210.649 89.8059C210.627 89.7808 210.605 89.7557 210.583 89.7306L209.833 90.3916ZM214.915 96.7106C214.935 96.7374 214.955 96.7642 214.974 96.791L215.781 96.1997C215.761 96.1727 215.741 96.1456 215.721 96.1185L214.915 96.7106ZM219.441 103.439C219.458 103.467 219.476 103.496 219.493 103.524L220.346 103.001C220.328 102.972 220.31 102.943 220.293 102.915L219.441 103.439ZM223.423 110.505C223.438 110.535 223.454 110.565 223.469 110.595L224.359 110.138C224.343 110.108 224.328 110.077 224.312 110.047L223.423 110.505ZM226.877 117.85C226.891 117.881 226.904 117.912 226.917 117.942L227.836 117.55C227.823 117.519 227.81 117.488 227.797 117.457L226.877 117.85ZM229.808 125.408C229.819 125.438 229.83 125.469 229.84 125.5L230.785 125.171C230.774 125.14 230.763 125.109 230.752 125.078L229.808 125.408ZM232.219 133.168C232.227 133.199 232.236 133.231 232.244 133.262L233.209 133C233.201 132.969 233.192 132.937 233.184 132.905L232.219 133.168ZM234.004 141.066C234.005 141.069 234.005 141.072 234.005 141.073C234.005 141.074 234.006 141.074 234.006 141.075C234.006 141.075 234.006 141.075 234.006 141.075C234.006 141.075 234.006 141.075 234.006 141.075C234.006 141.075 234.006 141.075 234.006 141.075C234.006 141.075 234.006 141.075 234.006 141.075C234.006 141.075 234.006 141.075 234.006 141.075C234.006 141.075 234.006 141.075 234.006 141.075V141.075C234.006 141.075 234.006 141.075 234.5 141C234.994 140.925 234.994 140.925 234.994 140.925V140.925C234.994 140.925 234.994 140.925 234.994 140.925C234.994 140.925 234.994 140.925 234.994 140.925C234.994 140.925 234.994 140.925 234.994 140.925C234.994 140.925 234.994 140.925 234.994 140.925C234.994 140.925 234.994 140.925 234.994 140.925C234.994 140.924 234.994 140.924 234.994 140.924C234.994 140.923 234.994 140.922 234.994 140.921C234.993 140.919 234.993 140.916 234.992 140.912L234.004 141.066Z" fill="#0085FF" fill-opacity="0.25"/>
<path d="M58.5029 140.947L58.4494 141.444L59.4436 141.551L59.4971 141.054L58.5029 140.947ZM129.079 63.7123C129.351 63.6689 129.537 63.4127 129.494 63.14C129.45 62.8673 129.194 62.6813 128.921 62.7247L129.079 63.7123ZM59.4983 141.043C59.5288 140.768 59.3311 140.521 59.0567 140.49C58.7822 140.46 58.535 140.658 58.5045 140.932L59.4983 141.043ZM59.9264 133.068C59.8655 133.337 60.0344 133.605 60.3037 133.666C60.5731 133.727 60.8408 133.558 60.9017 133.288L59.9264 133.068ZM60.9242 133.189C60.9854 132.92 60.8167 132.652 60.5475 132.591C60.2782 132.53 60.0103 132.698 59.9491 132.968L60.9242 133.189ZM61.9932 125.262C61.9131 125.527 62.0624 125.806 62.3267 125.886C62.5909 125.966 62.8701 125.817 62.9502 125.553L61.9932 125.262ZM62.9796 125.456C63.0599 125.191 62.9109 124.912 62.6467 124.832C62.3825 124.751 62.1032 124.901 62.0229 125.165L62.9796 125.456ZM64.5987 117.639C64.5002 117.897 64.6295 118.186 64.8875 118.285C65.1455 118.383 65.4345 118.254 65.5329 117.996L64.5987 117.639ZM65.568 117.904C65.6667 117.646 65.5377 117.357 65.2798 117.259C65.0219 117.16 64.7328 117.289 64.6341 117.547L65.568 117.904ZM67.7486 110.213C67.6314 110.463 67.739 110.761 67.9891 110.878C68.2391 110.995 68.5368 110.887 68.654 110.637L67.7486 110.213ZM68.6962 110.548C68.8136 110.298 68.7063 110 68.4563 109.882C68.2064 109.765 67.9086 109.872 67.7911 110.122L68.6962 110.548ZM71.4569 103.045C71.3203 103.285 71.404 103.591 71.644 103.727C71.884 103.864 72.1893 103.78 72.3259 103.54L71.4569 103.045ZM72.3751 103.454C72.512 103.214 72.4285 102.909 72.1886 102.772C71.9488 102.635 71.6434 102.718 71.5066 102.958L72.3751 103.454ZM75.742 96.2075C75.5854 96.4349 75.6427 96.7463 75.8701 96.9029C76.0975 97.0596 76.4089 97.0023 76.5655 96.7749L75.742 96.2075ZM76.6218 96.6933C76.7787 96.466 76.7217 96.1546 76.4945 95.9977C76.2673 95.8408 75.9559 95.8978 75.7989 96.125L76.6218 96.6933ZM80.6205 89.7779C80.4434 89.9898 80.4716 90.3052 80.6835 90.4822C80.8955 90.6593 81.2108 90.631 81.3878 90.4191L80.6205 89.7779ZM81.4512 90.3434C81.6285 90.1317 81.6007 89.8163 81.389 89.639C81.1773 89.4617 80.8619 89.4895 80.6846 89.7012L81.4512 90.3434ZM86.0961 83.8448C85.8988 84.0381 85.8956 84.3546 86.0889 84.5519C86.2821 84.7491 86.5987 84.7524 86.7959 84.5591L86.0961 83.8448ZM86.8663 84.4903C87.0638 84.2973 87.0674 83.9807 86.8744 83.7832C86.6814 83.5857 86.3648 83.5821 86.1673 83.7751L86.8663 84.4903ZM92.1536 78.499C91.9372 78.6706 91.9008 78.985 92.0723 79.2014C92.2438 79.4179 92.5583 79.4542 92.7747 79.2827L92.1536 78.499ZM92.8515 79.222C93.0681 79.0507 93.1049 78.7363 92.9337 78.5196C92.7625 78.303 92.448 78.2662 92.2314 78.4375L92.8515 79.222ZM98.7511 73.8257C98.5174 73.9729 98.4473 74.2816 98.5945 74.5153C98.7417 74.7489 99.0504 74.819 99.2841 74.6719L98.7511 73.8257ZM99.3684 74.6189C99.6022 74.472 99.6727 74.1634 99.5259 73.9295C99.379 73.6957 99.0704 73.6252 98.8365 73.772L99.3684 74.6189ZM105.796 69.903C105.548 70.0241 105.445 70.3235 105.566 70.5717C105.687 70.8198 105.987 70.9227 106.235 70.8015L105.796 69.903ZM106.324 70.7583C106.572 70.6375 106.675 70.3382 106.554 70.0899C106.434 69.8416 106.134 69.7383 105.886 69.8591L106.324 70.7583ZM113.239 66.7443C112.98 66.8388 112.846 67.1257 112.941 67.3852C113.035 67.6446 113.322 67.7784 113.582 67.6839L113.239 66.7443ZM113.673 67.6507C113.932 67.5566 114.067 67.2698 113.972 67.0102C113.878 66.7506 113.592 66.6165 113.332 66.7107L113.673 67.6507ZM120.94 64.3696C120.673 64.438 120.511 64.7103 120.58 64.9778C120.648 65.2454 120.92 65.4068 121.188 65.3385L120.94 64.3696ZM121.284 65.314C121.551 65.246 121.713 64.9739 121.645 64.7062C121.577 64.4386 121.305 64.2768 121.037 64.3449L121.284 65.314ZM128.871 62.7327C128.599 62.7762 128.413 63.0326 128.456 63.3053C128.5 63.578 128.756 63.7637 129.029 63.7202L128.871 62.7327ZM59 141C59.4971 141.054 59.4971 141.054 59.4971 141.054C59.4971 141.054 59.4971 141.054 59.4971 141.054C59.4971 141.054 59.4971 141.054 59.4971 141.054C59.4971 141.054 59.4971 141.054 59.4971 141.054C59.4971 141.054 59.4971 141.054 59.4971 141.054C59.4971 141.054 59.4971 141.054 59.4971 141.054C59.4971 141.054 59.4971 141.054 59.4971 141.054C59.4971 141.053 59.4971 141.053 59.4972 141.053C59.4972 141.053 59.4973 141.052 59.4974 141.051C59.4976 141.049 59.4979 141.047 59.4983 141.043L58.5045 140.932C58.504 140.937 58.5036 140.94 58.5033 140.942C58.5032 140.944 58.5031 140.945 58.503 140.945C58.503 140.946 58.5029 140.946 58.5029 140.946C58.5029 140.946 58.5029 140.946 58.5029 140.946C58.5029 140.946 58.5029 140.946 58.5029 140.946C58.5029 140.946 58.5029 140.946 58.5029 140.947C58.5029 140.947 58.5029 140.947 58.5029 140.947C58.5029 140.947 58.5029 140.947 58.5029 140.947C58.5029 140.947 58.5029 140.947 58.5029 140.947C58.5029 140.947 58.5029 140.947 59 141ZM60.9017 133.288C60.9092 133.255 60.9167 133.222 60.9242 133.189L59.9491 132.968C59.9415 133.001 59.9339 133.034 59.9264 133.068L60.9017 133.288ZM62.9502 125.553C62.96 125.52 62.9698 125.488 62.9796 125.456L62.0229 125.165C62.013 125.197 62.0031 125.23 61.9932 125.262L62.9502 125.553ZM65.5329 117.996C65.5446 117.965 65.5563 117.935 65.568 117.904L64.6341 117.547C64.6223 117.578 64.6105 117.608 64.5987 117.639L65.5329 117.996ZM68.654 110.637C68.6681 110.607 68.6821 110.578 68.6962 110.548L67.7911 110.122C67.7769 110.152 67.7628 110.183 67.7486 110.213L68.654 110.637ZM72.3259 103.54C72.3423 103.511 72.3587 103.483 72.3751 103.454L71.5066 102.958C71.49 102.987 71.4734 103.016 71.4569 103.045L72.3259 103.54ZM76.5655 96.7749C76.5843 96.7477 76.603 96.7205 76.6218 96.6933L75.7989 96.125C75.78 96.1525 75.761 96.18 75.742 96.2075L76.5655 96.7749ZM81.3878 90.4191C81.4089 90.3939 81.4301 90.3686 81.4512 90.3434L80.6846 89.7012C80.6632 89.7268 80.6418 89.7524 80.6205 89.7779L81.3878 90.4191ZM86.7959 84.5591C86.8194 84.5361 86.8428 84.5132 86.8663 84.4903L86.1673 83.7751C86.1436 83.7983 86.1198 83.8216 86.0961 83.8448L86.7959 84.5591ZM92.7747 79.2827C92.8003 79.2624 92.8259 79.2422 92.8515 79.222L92.2314 78.4375C92.2054 78.458 92.1795 78.4785 92.1536 78.499L92.7747 79.2827ZM99.2841 74.6719C99.3122 74.6542 99.3402 74.6365 99.3684 74.6189L98.8365 73.772C98.808 73.7899 98.7796 73.8078 98.7511 73.8257L99.2841 74.6719ZM106.235 70.8015C106.265 70.7871 106.294 70.7727 106.324 70.7583L105.886 69.8591C105.856 69.8737 105.826 69.8883 105.796 69.903L106.235 70.8015ZM113.582 67.6839C113.612 67.6729 113.642 67.6618 113.673 67.6507L113.332 66.7107C113.301 66.7219 113.27 66.7331 113.239 66.7443L113.582 67.6839ZM121.188 65.3385C121.22 65.3303 121.252 65.3222 121.284 65.314L121.037 64.3449C121.005 64.3531 120.973 64.3613 120.94 64.3696L121.188 65.3385ZM129.029 63.7202C129.045 63.7176 129.062 63.7149 129.079 63.7123L128.921 62.7247C128.905 62.7274 128.888 62.73 128.871 62.7327L129.029 63.7202Z" fill="#0085FF"/>
<path d="M59.9418 80.6092C46.461 96.7116 38.906 115.573 37.1565 134.759C36.7923 138.754 40.2315 142 44.5046 142C48.7345 142 52.2084 138.815 52.6813 134.87C54.6823 118.176 61.6098 101.008 72.5 87.9999C84.9352 73.1465 102.536 63.2568 121.671 58.6909C125.903 57.681 128.792 53.809 127.944 49.8238C127.139 46.0444 123.26 43.5678 119.243 44.5155C96.5216 49.8775 75.4761 62.054 59.9418 80.6092Z" fill="#0085FF"/>
<path d="M4.51172 163.318C4.51172 163.025 4.40039 162.799 4.17773 162.639C3.95898 162.475 3.57422 162.334 3.02344 162.217C2.47656 162.1 2.04102 161.959 1.7168 161.795C1.39648 161.631 1.1582 161.436 1.00195 161.209C0.849609 160.982 0.773438 160.713 0.773438 160.4C0.773438 159.881 0.992188 159.441 1.42969 159.082C1.87109 158.723 2.43359 158.543 3.11719 158.543C3.83594 158.543 4.41797 158.729 4.86328 159.1C5.3125 159.471 5.53711 159.945 5.53711 160.523H4.44727C4.44727 160.227 4.32031 159.971 4.06641 159.756C3.81641 159.541 3.5 159.434 3.11719 159.434C2.72266 159.434 2.41406 159.52 2.19141 159.691C1.96875 159.863 1.85742 160.088 1.85742 160.365C1.85742 160.627 1.96094 160.824 2.16797 160.957C2.375 161.09 2.74805 161.217 3.28711 161.338C3.83008 161.459 4.26953 161.604 4.60547 161.771C4.94141 161.939 5.18945 162.143 5.34961 162.381C5.51367 162.615 5.5957 162.902 5.5957 163.242C5.5957 163.809 5.36914 164.264 4.91602 164.607C4.46289 164.947 3.875 165.117 3.15234 165.117C2.64453 165.117 2.19531 165.027 1.80469 164.848C1.41406 164.668 1.10742 164.418 0.884766 164.098C0.666016 163.773 0.556641 163.424 0.556641 163.049H1.64062C1.66016 163.412 1.80469 163.701 2.07422 163.916C2.34766 164.127 2.70703 164.232 3.15234 164.232C3.5625 164.232 3.89062 164.15 4.13672 163.986C4.38672 163.818 4.51172 163.596 4.51172 163.318ZM8.18555 165H7.10156V158.66H8.18555V165ZM7.01367 156.979C7.01367 156.803 7.06641 156.654 7.17188 156.533C7.28125 156.412 7.44141 156.352 7.65234 156.352C7.86328 156.352 8.02344 156.412 8.13281 156.533C8.24219 156.654 8.29688 156.803 8.29688 156.979C8.29688 157.154 8.24219 157.301 8.13281 157.418C8.02344 157.535 7.86328 157.594 7.65234 157.594C7.44141 157.594 7.28125 157.535 7.17188 157.418C7.06641 157.301 7.01367 157.154 7.01367 156.979ZM10.9512 158.66L10.9863 159.457C11.4707 158.848 12.1035 158.543 12.8848 158.543C14.2246 158.543 14.9004 159.299 14.9121 160.811V165H13.8281V160.805C13.8242 160.348 13.7188 160.01 13.5117 159.791C13.3086 159.572 12.9902 159.463 12.5566 159.463C12.2051 159.463 11.8965 159.557 11.6309 159.744C11.3652 159.932 11.1582 160.178 11.0098 160.482V165H9.92578V158.66H10.9512ZM19.0898 164.232C19.4766 164.232 19.8145 164.115 20.1035 163.881C20.3926 163.646 20.5527 163.354 20.584 163.002H21.6094C21.5898 163.365 21.4648 163.711 21.2344 164.039C21.0039 164.367 20.6953 164.629 20.3086 164.824C19.9258 165.02 19.5195 165.117 19.0898 165.117C18.2266 165.117 17.5391 164.83 17.0273 164.256C16.5195 163.678 16.2656 162.889 16.2656 161.889V161.707C16.2656 161.09 16.3789 160.541 16.6055 160.061C16.832 159.58 17.1562 159.207 17.5781 158.941C18.0039 158.676 18.5059 158.543 19.084 158.543C19.7949 158.543 20.3848 158.756 20.8535 159.182C21.3262 159.607 21.5781 160.16 21.6094 160.84H20.584C20.5527 160.43 20.3965 160.094 20.1152 159.832C19.8379 159.566 19.4941 159.434 19.084 159.434C18.5332 159.434 18.1055 159.633 17.8008 160.031C17.5 160.426 17.3496 160.998 17.3496 161.748V161.953C17.3496 162.684 17.5 163.246 17.8008 163.641C18.1016 164.035 18.5312 164.232 19.0898 164.232ZM25.459 165.117C24.5996 165.117 23.9004 164.836 23.3613 164.273C22.8223 163.707 22.5527 162.951 22.5527 162.006V161.807C22.5527 161.178 22.6719 160.617 22.9102 160.125C23.1523 159.629 23.4883 159.242 23.918 158.965C24.3516 158.684 24.8203 158.543 25.3242 158.543C26.1484 158.543 26.7891 158.814 27.2461 159.357C27.7031 159.9 27.9316 160.678 27.9316 161.689V162.141H23.6367C23.6523 162.766 23.834 163.271 24.1816 163.658C24.5332 164.041 24.9785 164.232 25.5176 164.232C25.9004 164.232 26.2246 164.154 26.4902 163.998C26.7559 163.842 26.9883 163.635 27.1875 163.377L27.8496 163.893C27.3184 164.709 26.5215 165.117 25.459 165.117ZM25.3242 159.434C24.8867 159.434 24.5195 159.594 24.2227 159.914C23.9258 160.23 23.7422 160.676 23.6719 161.25H26.8477V161.168C26.8164 160.617 26.668 160.191 26.4023 159.891C26.1367 159.586 25.7773 159.434 25.3242 159.434ZM37.6465 165H32.0566V164.221L35.0098 160.939C35.4473 160.443 35.748 160.041 35.9121 159.732C36.0801 159.42 36.1641 159.098 36.1641 158.766C36.1641 158.32 36.0293 157.955 35.7598 157.67C35.4902 157.385 35.1309 157.242 34.6816 157.242C34.1426 157.242 33.7227 157.396 33.4219 157.705C33.125 158.01 32.9766 158.436 32.9766 158.982H31.8926C31.8926 158.197 32.1445 157.562 32.6484 157.078C33.1562 156.594 33.834 156.352 34.6816 156.352C35.4746 156.352 36.1016 156.561 36.5625 156.979C37.0234 157.393 37.2539 157.945 37.2539 158.637C37.2539 159.477 36.7188 160.477 35.6484 161.637L33.3633 164.115H37.6465V165ZM43.3711 162.135H44.5547V163.02H43.3711V165H42.2812V163.02H38.3965V162.381L42.2168 156.469H43.3711V162.135ZM39.627 162.135H42.2812V157.951L42.1523 158.186L39.627 162.135ZM45.668 164.432C45.668 164.244 45.7227 164.088 45.832 163.963C45.9453 163.838 46.1133 163.775 46.3359 163.775C46.5586 163.775 46.7266 163.838 46.8398 163.963C46.957 164.088 47.0156 164.244 47.0156 164.432C47.0156 164.611 46.957 164.762 46.8398 164.883C46.7266 165.004 46.5586 165.064 46.3359 165.064C46.1133 165.064 45.9453 165.004 45.832 164.883C45.7227 164.762 45.668 164.611 45.668 164.432ZM54.0469 161.361C54.0469 162.631 53.8301 163.574 53.3965 164.191C52.9629 164.809 52.2852 165.117 51.3633 165.117C50.4531 165.117 49.7793 164.816 49.3418 164.215C48.9043 163.609 48.6777 162.707 48.6621 161.508V160.061C48.6621 158.807 48.8789 157.875 49.3125 157.266C49.7461 156.656 50.4258 156.352 51.3516 156.352C52.2695 156.352 52.9453 156.646 53.3789 157.236C53.8125 157.822 54.0352 158.729 54.0469 159.955V161.361ZM52.9629 159.879C52.9629 158.961 52.834 158.293 52.5762 157.875C52.3184 157.453 51.9102 157.242 51.3516 157.242C50.7969 157.242 50.3926 157.451 50.1387 157.869C49.8848 158.287 49.7539 158.93 49.7461 159.797V161.531C49.7461 162.453 49.8789 163.135 50.1445 163.576C50.4141 164.014 50.8203 164.232 51.3633 164.232C51.8984 164.232 52.2949 164.025 52.5527 163.611C52.8145 163.197 52.9512 162.545 52.9629 161.654V159.879ZM59.6895 156.463V157.383H59.4902C58.6465 157.398 57.9746 157.648 57.4746 158.133C56.9746 158.617 56.6855 159.299 56.6074 160.178C57.0566 159.662 57.6699 159.404 58.4473 159.404C59.1895 159.404 59.7812 159.666 60.2227 160.189C60.668 160.713 60.8906 161.389 60.8906 162.217C60.8906 163.096 60.6504 163.799 60.1699 164.326C59.6934 164.854 59.0527 165.117 58.248 165.117C57.4316 165.117 56.7695 164.805 56.2617 164.18C55.7539 163.551 55.5 162.742 55.5 161.754V161.338C55.5 159.768 55.834 158.568 56.502 157.74C57.1738 156.908 58.1719 156.482 59.4961 156.463H59.6895ZM58.2656 160.307C57.8945 160.307 57.5527 160.418 57.2402 160.641C56.9277 160.863 56.7109 161.143 56.5898 161.479V161.877C56.5898 162.58 56.748 163.146 57.0645 163.576C57.3809 164.006 57.7754 164.221 58.248 164.221C58.7363 164.221 59.1191 164.041 59.3965 163.682C59.6777 163.322 59.8184 162.852 59.8184 162.27C59.8184 161.684 59.6758 161.211 59.3906 160.852C59.1094 160.488 58.7344 160.307 58.2656 160.307ZM62.3086 164.432C62.3086 164.244 62.3633 164.088 62.4727 163.963C62.5859 163.838 62.7539 163.775 62.9766 163.775C63.1992 163.775 63.3672 163.838 63.4805 163.963C63.5977 164.088 63.6562 164.244 63.6562 164.432C63.6562 164.611 63.5977 164.762 63.4805 164.883C63.3672 165.004 63.1992 165.064 62.9766 165.064C62.7539 165.064 62.5859 165.004 62.4727 164.883C62.3633 164.762 62.3086 164.611 62.3086 164.432ZM70.9277 165H65.3379V164.221L68.291 160.939C68.7285 160.443 69.0293 160.041 69.1934 159.732C69.3613 159.42 69.4453 159.098 69.4453 158.766C69.4453 158.32 69.3105 157.955 69.041 157.67C68.7715 157.385 68.4121 157.242 67.9629 157.242C67.4238 157.242 67.0039 157.396 66.7031 157.705C66.4062 158.01 66.2578 158.436 66.2578 158.982H65.1738C65.1738 158.197 65.4258 157.562 65.9297 157.078C66.4375 156.594 67.1152 156.352 67.9629 156.352C68.7559 156.352 69.3828 156.561 69.8438 156.979C70.3047 157.393 70.5352 157.945 70.5352 158.637C70.5352 159.477 70 160.477 68.9297 161.637L66.6445 164.115H70.9277V165ZM77.4258 161.361C77.4258 162.631 77.209 163.574 76.7754 164.191C76.3418 164.809 75.6641 165.117 74.7422 165.117C73.832 165.117 73.1582 164.816 72.7207 164.215C72.2832 163.609 72.0566 162.707 72.041 161.508V160.061C72.041 158.807 72.2578 157.875 72.6914 157.266C73.125 156.656 73.8047 156.352 74.7305 156.352C75.6484 156.352 76.3242 156.646 76.7578 157.236C77.1914 157.822 77.4141 158.729 77.4258 159.955V161.361ZM76.3418 159.879C76.3418 158.961 76.2129 158.293 75.9551 157.875C75.6973 157.453 75.2891 157.242 74.7305 157.242C74.1758 157.242 73.7715 157.451 73.5176 157.869C73.2637 158.287 73.1328 158.93 73.125 159.797V161.531C73.125 162.453 73.2578 163.135 73.5234 163.576C73.793 164.014 74.1992 164.232 74.7422 164.232C75.2773 164.232 75.6738 164.025 75.9316 163.611C76.1934 163.197 76.3301 162.545 76.3418 161.654V159.879ZM84.4043 165H78.8145V164.221L81.7676 160.939C82.2051 160.443 82.5059 160.041 82.6699 159.732C82.8379 159.42 82.9219 159.098 82.9219 158.766C82.9219 158.32 82.7871 157.955 82.5176 157.67C82.248 157.385 81.8887 157.242 81.4395 157.242C80.9004 157.242 80.4805 157.396 80.1797 157.705C79.8828 158.01 79.7344 158.436 79.7344 158.982H78.6504C78.6504 158.197 78.9023 157.562 79.4062 157.078C79.9141 156.594 80.5918 156.352 81.4395 156.352C82.2324 156.352 82.8594 156.561 83.3203 156.979C83.7812 157.393 84.0117 157.945 84.0117 158.637C84.0117 159.477 83.4766 160.477 82.4062 161.637L80.1211 164.115H84.4043V165ZM89.1152 165H88.0254V157.775L85.8398 158.578V157.594L88.9453 156.428H89.1152V165Z" fill="#969696"/>
<path d="M221.998 165H220.914V156H221.998V165ZM226.369 165.117C225.51 165.117 224.811 164.836 224.271 164.273C223.732 163.707 223.463 162.951 223.463 162.006V161.806C223.463 161.177 223.582 160.617 223.82 160.125C224.062 159.629 224.398 159.242 224.828 158.965C225.262 158.683 225.73 158.543 226.234 158.543C227.059 158.543 227.699 158.814 228.156 159.357C228.613 159.9 228.842 160.677 228.842 161.689V162.14H224.547C224.562 162.765 224.744 163.271 225.092 163.658C225.443 164.041 225.889 164.232 226.428 164.232C226.811 164.232 227.135 164.154 227.4 163.998C227.666 163.842 227.898 163.635 228.098 163.377L228.76 163.892C228.229 164.709 227.432 165.117 226.369 165.117ZM226.234 159.433C225.797 159.433 225.43 159.594 225.133 159.914C224.836 160.23 224.652 160.676 224.582 161.25H227.758V161.168C227.727 160.617 227.578 160.191 227.312 159.89C227.047 159.586 226.688 159.433 226.234 159.433ZM230.635 165V159.498H229.633V158.66H230.635V158.01C230.635 157.33 230.816 156.804 231.18 156.433C231.543 156.062 232.057 155.877 232.721 155.877C232.971 155.877 233.219 155.91 233.465 155.976L233.406 156.855C233.223 156.82 233.027 156.802 232.82 156.802C232.469 156.802 232.197 156.906 232.006 157.113C231.814 157.316 231.719 157.609 231.719 157.992V158.66H233.072V159.498H231.719V165H230.635ZM235.744 157.125V158.66H236.928V159.498H235.744V163.429C235.744 163.683 235.797 163.875 235.902 164.004C236.008 164.129 236.188 164.191 236.441 164.191C236.566 164.191 236.738 164.168 236.957 164.121V165C236.672 165.078 236.395 165.117 236.125 165.117C235.641 165.117 235.275 164.97 235.029 164.677C234.783 164.385 234.66 163.969 234.66 163.429V159.498H233.506V158.66H234.66V157.125H235.744ZM246.654 165H241.064V164.22L244.018 160.939C244.455 160.443 244.756 160.041 244.92 159.732C245.088 159.42 245.172 159.097 245.172 158.765C245.172 158.32 245.037 157.955 244.768 157.67C244.498 157.385 244.139 157.242 243.689 157.242C243.15 157.242 242.73 157.396 242.43 157.705C242.133 158.01 241.984 158.435 241.984 158.982H240.9C240.9 158.197 241.152 157.562 241.656 157.078C242.164 156.594 242.842 156.351 243.689 156.351C244.482 156.351 245.109 156.56 245.57 156.978C246.031 157.392 246.262 157.945 246.262 158.636C246.262 159.476 245.727 160.476 244.656 161.636L242.371 164.115H246.654V165ZM251.365 165H250.275V157.775L248.09 158.578V157.594L251.195 156.427H251.365V165ZM255.736 159.427C256.217 158.838 256.842 158.543 257.611 158.543C258.951 158.543 259.627 159.299 259.639 160.81V165H258.555V160.804C258.551 160.347 258.445 160.01 258.238 159.791C258.035 159.572 257.717 159.463 257.283 159.463C256.932 159.463 256.623 159.556 256.357 159.744C256.092 159.931 255.885 160.177 255.736 160.482V165H254.652V156H255.736V159.427ZM268.703 162.135H269.887V163.019H268.703V165H267.613V163.019H263.729V162.381L267.549 156.469H268.703V162.135ZM264.959 162.135H267.613V157.951L267.484 158.185L264.959 162.135ZM271.363 160.722L271.797 156.469H276.168V157.47H272.717L272.459 159.797C272.877 159.551 273.352 159.427 273.883 159.427C274.66 159.427 275.277 159.685 275.734 160.201C276.191 160.713 276.42 161.406 276.42 162.281C276.42 163.16 276.182 163.853 275.705 164.361C275.232 164.865 274.57 165.117 273.719 165.117C272.965 165.117 272.35 164.908 271.873 164.49C271.396 164.072 271.125 163.494 271.059 162.756H272.084C272.15 163.244 272.324 163.613 272.605 163.863C272.887 164.109 273.258 164.232 273.719 164.232C274.223 164.232 274.617 164.06 274.902 163.717C275.191 163.373 275.336 162.898 275.336 162.293C275.336 161.722 275.18 161.265 274.867 160.922C274.559 160.574 274.146 160.4 273.631 160.4C273.158 160.4 272.787 160.504 272.518 160.711L272.23 160.945L271.363 160.722ZM278.734 158.66L278.764 159.363C279.229 158.816 279.855 158.543 280.645 158.543C281.531 158.543 282.135 158.883 282.455 159.562C282.666 159.258 282.939 159.011 283.275 158.824C283.615 158.636 284.016 158.543 284.477 158.543C285.867 158.543 286.574 159.279 286.598 160.752V165H285.514V160.816C285.514 160.363 285.41 160.025 285.203 159.802C284.996 159.576 284.648 159.463 284.16 159.463C283.758 159.463 283.424 159.584 283.158 159.826C282.893 160.064 282.738 160.386 282.695 160.793V165H281.605V160.845C281.605 159.924 281.154 159.463 280.252 159.463C279.541 159.463 279.055 159.765 278.793 160.371V165H277.709V158.66H278.734Z" fill="#969696"/>
</svg>
