<svg xmlns="http://www.w3.org/2000/svg" viewBox="0 0 564.72 90.47"><defs><style>.cls-1{fill:#111;}</style></defs><title>Everstake-Logo</title><g id="Layer_2" data-name="Layer 2"><g id="Layer_1-2" data-name="Layer 1"><path class="cls-1" d="M99.33,39,79.68,5A10,10,0,0,0,71,0H31.74A12.45,12.45,0,0,0,21,6.21l-19.65,34a10,10,0,0,0,0,10L21,84.26a12.45,12.45,0,0,0,10.75,6.21H71a10,10,0,0,0,8.64-5l19.65-34A12.44,12.44,0,0,0,99.33,39ZM6.93,45.35l2.22-3.81h0L26.7,11.09l11,19.08a3.7,3.7,0,0,0,6.4-3.7L35.24,11.09h0a8.39,8.39,0,0,0-6.6-3.69H68.26L49.63,39.67h0a3.75,3.75,0,0,1-3.24,1.87H13.62A7.69,7.69,0,0,0,6.93,45.35ZM68.26,83.08H33.11l11-19.1a3.7,3.7,0,1,0-6.4-3.7l-11,19.1v0h0L24.52,83.2a7.7,7.7,0,0,0,.33-7L9.13,48.93H46.39a3.76,3.76,0,0,1,3.24,1.87h0L66.18,79.46a8.29,8.29,0,0,0,6.54,3.62ZM66.14,79.4h0Zm26.1-30.46L74.67,79.38,56,47.11a3.76,3.76,0,0,1,0-3.74h0L74.67,11.09h0l2.19-3.81a7.74,7.74,0,0,0,.42,8.33c.63.88,15,25.92,15,25.92H70.17a3.7,3.7,0,1,0,0,7.4h17.7l-.1,0a7.69,7.69,0,0,0,6.69-3.81l-2.23,3.83Z"/><polygon class="cls-1" points="66.14 79.4 66.14 79.4 66.14 79.4 66.14 79.4"/><path class="cls-1" d="M313.53,25.17a12.27,12.27,0,0,0-6.5,1.7A21,21,0,0,0,302,31.21l-.2.24h-1.17l-1.22-5.38H286.69a2.32,2.32,0,0,0-2.17,1.5l-2.3,6.13h14.72s-4.61,0-4.61,3.74V57.88h-5.65a2.32,2.32,0,0,0-2.17,1.5l-2.3,6.13h32.61A2.32,2.32,0,0,0,317,64l2.3-6.13H301.6V39.63l.11-.17a17.19,17.19,0,0,1,3.52-3.91,8.75,8.75,0,0,1,5.69-1.78,3.65,3.65,0,0,1,3.3,1.66,8,8,0,0,1,.95,4h8.21c-.07-5.07-1-8.74-2.67-10.91A8.55,8.55,0,0,0,313.53,25.17Z"/><path class="cls-1" d="M363.49,45a33.6,33.6,0,0,0-6.32-2.28l-6.45-1.67a33.12,33.12,0,0,1-5-1.71c-1.59-.71-2.4-1.71-2.4-3A3.58,3.58,0,0,1,345.82,33a15.15,15.15,0,0,1,5.81-.95,19,19,0,0,1,3.93.42,27,27,0,0,1,3.77,1.09c1.18.44,2.33.93,3.4,1.45.84.41,1.61.81,2.29,1.2l3.81-6.17q-1-.67-2.19-1.46a18.89,18.89,0,0,0-3.7-1.77,33.83,33.83,0,0,0-5.16-1.36,37.74,37.74,0,0,0-6.89-.56,27.86,27.86,0,0,0-6.81.8A16.66,16.66,0,0,0,338.75,28a11.52,11.52,0,0,0-3.47,3.66,9.64,9.64,0,0,0-1.25,5,8.26,8.26,0,0,0,1.84,5.56,15.57,15.57,0,0,0,4.73,3.67,28.58,28.58,0,0,0,6.3,2.31c2.32.57,4.49,1.13,6.46,1.68a29.83,29.83,0,0,1,5.05,1.84,3.57,3.57,0,0,1,2.38,3.21,3.78,3.78,0,0,1-2.26,3.62c-2.56,1.22-6.3,1.21-9.87.33a34.41,34.41,0,0,1-4.78-1.54,26.32,26.32,0,0,1-4.06-2.05c-.91-.57-1.67-1.09-2.3-1.57l-4.18,6.55a28.51,28.51,0,0,0,7.57,4.36,31.47,31.47,0,0,0,11.86,2c5.75,0,10.12-1.15,13-3.41A11,11,0,0,0,370,54a8,8,0,0,0-1.83-5.43A14.85,14.85,0,0,0,363.49,45Z"/><path class="cls-1" d="M415.56,54.79a19.17,19.17,0,0,1-2.71,1.86,15.9,15.9,0,0,1-3.37,1.41,14.78,14.78,0,0,1-4.19.56,8.84,8.84,0,0,1-7.12-3.05c-1.67-2-2.52-5.2-2.52-9.53V33.7h18.51L417,26.07H395.66V14l-7.58,2.16a2.32,2.32,0,0,0-1.68,2.23v7.71h-3.61a2.32,2.32,0,0,0-2.17,1.5l-2.3,6.13h13.05s-5,0-5,3.93V46c0,7.19,1.49,12.49,4.44,15.74s7.38,4.88,13.25,4.88a23.48,23.48,0,0,0,5-.56,27.75,27.75,0,0,0,4.9-1.55,28.57,28.57,0,0,0,4.38-2.31,15.52,15.52,0,0,0,3-2.47l-4.19-6.29Z"/><path class="cls-1" d="M463.37,57.26q-.08-1-.24-2.16-.17-2.18-.17-3.93c0-1.54.1-3.32.29-5.29s.28-4.28.28-7a19.09,19.09,0,0,0-.79-5.67A10.4,10.4,0,0,0,460.25,29a11.48,11.48,0,0,0-4.55-2.73,21.88,21.88,0,0,0-7-1,42.27,42.27,0,0,0-10,1,45.42,45.42,0,0,0-6.89,2.25l2.12,7a52.36,52.36,0,0,1,5-1.83,25.24,25.24,0,0,1,7.65-1.09,9.32,9.32,0,0,1,5.67,1.48c1.36,1,2,2.7,2,5v1.52a9.28,9.28,0,0,1-.17,1.79L454,43l-.59,0q-2.37-.16-4-.33c-1.06-.11-2.07-.16-3-.16a32.93,32.93,0,0,0-7.35.76,16.73,16.73,0,0,0-5.53,2.27,9.94,9.94,0,0,0-3.42,3.82,12.37,12.37,0,0,0-1.18,5.61,10.42,10.42,0,0,0,3.35,8.15c2.24,2,5.33,3.09,9.2,3.09a14.89,14.89,0,0,0,7.76-1.74,13.5,13.5,0,0,0,4.41-4.15l.2-.31h1.33l1.07,5.55h9.11a2.32,2.32,0,0,0,2.28-1.89l1.08-5.74h-5.25Zm-9.18-3.47-.08.15a10.29,10.29,0,0,1-3,3.28,10.43,10.43,0,0,1-6.21,1.56c-2.24,0-3.83-.47-4.86-1.45a5.33,5.33,0,0,1-1.54-4,4.53,4.53,0,0,1,.86-2.76,6.08,6.08,0,0,1,2.17-1.79,10.93,10.93,0,0,1,2.92-1,22.33,22.33,0,0,1,6.74-.09c1.1.14,1.91.26,2.47.37l.54.11v5.61Z"/><path class="cls-1" d="M500.84,44l15.87-17.91H506L492.66,42.3h-3.44V9.75H477.74a2.32,2.32,0,0,0-2.17,1.5l-2.3,6.13h11.18s-4.49,0-4.49,3.28V65.51h9.26V48.62h3.84l14,16.89h7.76A2.32,2.32,0,0,0,517,64l2.3-6.13h-7.24Z"/><path class="cls-1" d="M219.3,26.07a2.32,2.32,0,0,0-2.21,1.61L208.68,51.1h-1.52l-11.22-25h-8.16a2.32,2.32,0,0,0-2.17,1.5l-2.3,6.13h11.39s-5.44,0-3.37,5l11.51,26.78h9.64l15.07-39.45Z"/><path class="cls-1" d="M171.74,28.43a16.88,16.88,0,0,0-5.85-2.71,26.49,26.49,0,0,0-14.68.51,19,19,0,0,0-6.74,3.9A18.25,18.25,0,0,0,140,36.63a23.44,23.44,0,0,0-1.66,9.16,24.6,24.6,0,0,0,1.46,8.77A17.63,17.63,0,0,0,150.7,65.22a27.15,27.15,0,0,0,9.11,1.43c2,0,11.12-.34,18.11-5.34l-1.29-6.52a30.51,30.51,0,0,1-16.17,4.72A20,20,0,0,1,155.7,59a12.33,12.33,0,0,1-4.05-1.77,9.41,9.41,0,0,1-2.9-3.16,10.09,10.09,0,0,1-1.19-4.72l0-.69H177a37.73,37.73,0,0,0,.7-6.91,17.64,17.64,0,0,0-1.68-8.17A14.5,14.5,0,0,0,171.74,28.43Zm-2.52,13.79H147.75l.06-.72a9.28,9.28,0,0,1,1.23-4,10,10,0,0,1,2.67-3,11.87,11.87,0,0,1,3.59-1.81,14.2,14.2,0,0,1,4.2-.61c3.22,0,5.68.87,7.3,2.58a9.67,9.67,0,0,1,2.43,6.9Z"/><path class="cls-1" d="M266.69,28.43a16.88,16.88,0,0,0-5.85-2.71,26.49,26.49,0,0,0-14.68.51,19,19,0,0,0-6.74,3.9,18.25,18.25,0,0,0-4.52,6.49,23.44,23.44,0,0,0-1.66,9.16,24.6,24.6,0,0,0,1.46,8.77,17.63,17.63,0,0,0,10.94,10.66,27.15,27.15,0,0,0,9.11,1.43c2,0,11.12-.34,18.11-5.34L271.6,54.8a30.51,30.51,0,0,1-16.17,4.72,20,20,0,0,1-4.77-.55,12.33,12.33,0,0,1-4.05-1.77A9.41,9.41,0,0,1,243.7,54a10.09,10.09,0,0,1-1.19-4.72l0-.69H272a37.73,37.73,0,0,0,.7-6.91A17.64,17.64,0,0,0,271,33.54,14.5,14.5,0,0,0,266.69,28.43Zm-2.52,13.79H242.7l.06-.72a9.28,9.28,0,0,1,1.23-4,10,10,0,0,1,2.67-3,11.87,11.87,0,0,1,3.59-1.81,14.2,14.2,0,0,1,4.2-.61c3.22,0,5.68.87,7.3,2.58a9.67,9.67,0,0,1,2.43,6.9Z"/><path class="cls-1" d="M558.54,28.43a16.88,16.88,0,0,0-5.85-2.71,26.49,26.49,0,0,0-14.68.51,19,19,0,0,0-6.74,3.9,18.25,18.25,0,0,0-4.52,6.49,23.44,23.44,0,0,0-1.66,9.16,24.6,24.6,0,0,0,1.46,8.77A17.63,17.63,0,0,0,537.5,65.22a27.15,27.15,0,0,0,9.11,1.43c2,0,11.12-.34,18.11-5.34l-1.29-6.52a30.51,30.51,0,0,1-16.17,4.72,20,20,0,0,1-4.77-.55,12.33,12.33,0,0,1-4.05-1.77,9.41,9.41,0,0,1-2.9-3.16,10.09,10.09,0,0,1-1.19-4.72l0-.69h29.51a37.73,37.73,0,0,0,.7-6.91,17.64,17.64,0,0,0-1.68-8.17A14.5,14.5,0,0,0,558.54,28.43ZM556,42.22H534.55l.06-.72a9.28,9.28,0,0,1,1.23-4,10,10,0,0,1,2.67-3,11.87,11.87,0,0,1,3.59-1.81,14.2,14.2,0,0,1,4.2-.61c3.22,0,5.68.87,7.3,2.58a9.67,9.67,0,0,1,2.43,6.9Z"/></g></g></svg>