<svg width="26" height="27" viewBox="0 0 26 27" fill="none" xmlns="http://www.w3.org/2000/svg">
<path fill-rule="evenodd" clip-rule="evenodd" d="M20.8119 5.33193C20.7102 5.23037 20.6492 5.12881 20.6492 4.98663C20.6492 4.84444 20.7102 4.74288 20.8119 4.64132C21.0154 4.45851 21.3409 4.45851 21.5646 4.64132C21.6664 4.74288 21.7274 4.84444 21.7274 4.98663C21.7274 5.12881 21.6664 5.23037 21.5646 5.33193C21.4629 5.41318 21.3205 5.47412 21.1985 5.47412C21.056 5.49443 20.9136 5.45381 20.8119 5.33193Z" fill="white" fill-opacity="0.7"/>
<path fill-rule="evenodd" clip-rule="evenodd" d="M19.5098 6.73352C19.4285 6.63195 19.3674 6.53039 19.3674 6.38821C19.3674 6.24602 19.4285 6.14446 19.5098 6.0429C19.6929 5.86009 20.0184 5.86009 20.2015 6.0429C20.2829 6.14446 20.3439 6.24602 20.3439 6.38821C20.3439 6.53039 20.2829 6.63195 20.2015 6.73352C20.0998 6.81476 19.9981 6.8757 19.8557 6.8757C19.7133 6.8757 19.6116 6.81476 19.5098 6.73352Z" fill="white" fill-opacity="0.7"/>
<path fill-rule="evenodd" clip-rule="evenodd" d="M18.0858 8.07409C18.0044 7.99284 17.9434 7.87097 17.9434 7.72878C17.9434 7.5866 18.0044 7.48504 18.0858 7.38348C18.2689 7.20067 18.5944 7.20067 18.7775 7.38348C18.8588 7.46473 18.9199 7.5866 18.9199 7.72878C18.9199 7.87097 18.8588 7.97253 18.7775 8.07409C18.6757 8.17566 18.574 8.21628 18.4316 8.21628C18.2892 8.21628 18.1671 8.15534 18.0858 8.07409Z" fill="white" fill-opacity="0.7"/>
<path fill-rule="evenodd" clip-rule="evenodd" d="M16.7228 9.43502C16.6211 9.35378 16.5601 9.2319 16.5601 9.08972C16.5601 8.94753 16.6211 8.84597 16.7228 8.74441C16.9263 8.5616 17.2518 8.5616 17.4755 8.74441C17.5773 8.82566 17.6383 8.94753 17.6383 9.08972C17.6383 9.2319 17.5773 9.35378 17.4755 9.43502C17.3738 9.53659 17.2314 9.57721 17.1093 9.57721C16.9669 9.57721 16.8449 9.5569 16.7228 9.43502Z" fill="white" fill-opacity="0.7"/>
<path fill-rule="evenodd" clip-rule="evenodd" d="M15.4207 10.796C15.319 10.7147 15.2783 10.5929 15.2783 10.4507C15.2783 10.3085 15.3394 10.2069 15.4207 10.1054C15.6038 9.92256 15.9293 9.92256 16.1124 10.1054C16.2141 10.1866 16.2548 10.3085 16.2548 10.4507C16.2548 10.5929 16.1938 10.7147 16.1124 10.796C16.031 10.8976 15.909 10.9382 15.7666 10.9382C15.6445 10.9585 15.5021 10.9179 15.4207 10.796Z" fill="white" fill-opacity="0.7"/>
<path fill-rule="evenodd" clip-rule="evenodd" d="M13.8542 11.8116C13.8542 11.6694 13.9153 11.5678 13.9967 11.4663C14.1798 11.2835 14.5053 11.2835 14.6883 11.4663C14.7901 11.5678 14.8308 11.6694 14.8308 11.8116C14.8308 11.9538 14.7697 12.0553 14.6883 12.1569C14.607 12.2381 14.4849 12.2991 14.3425 12.2991C14.2001 12.2991 14.0984 12.2381 13.9967 12.1569C13.8949 12.0756 13.8542 11.9538 13.8542 11.8116Z" fill="white" fill-opacity="0.7"/>
<path fill-rule="evenodd" clip-rule="evenodd" d="M11.3114 14.8178C11.23 14.7365 11.1689 14.6147 11.1689 14.4725C11.1689 14.3303 11.23 14.2287 11.3114 14.1272C11.4944 13.9443 11.82 13.9443 12.003 14.1272C12.1048 14.2287 12.1455 14.3303 12.1455 14.4725C12.1455 14.6147 12.0844 14.7162 12.003 14.8178C11.9217 14.9193 11.7996 14.96 11.6572 14.96C11.5351 14.9803 11.4131 14.9397 11.3114 14.8178Z" fill="white" fill-opacity="0.7"/>
<path fill-rule="evenodd" clip-rule="evenodd" d="M9.90738 16.1787C9.80566 16.0975 9.74463 15.9756 9.74463 15.8334C9.74463 15.6912 9.80566 15.5897 9.90738 15.4881C10.1108 15.3053 10.4363 15.3053 10.6601 15.4881C10.7618 15.5897 10.8229 15.6912 10.8229 15.8334C10.8229 15.9756 10.7618 16.0771 10.6601 16.1787C10.5584 16.2803 10.416 16.3209 10.2939 16.3209C10.1312 16.3412 10.0091 16.2803 9.90738 16.1787Z" fill="white" fill-opacity="0.7"/>
<path fill-rule="evenodd" clip-rule="evenodd" d="M8.58528 17.56C8.5039 17.4787 8.44287 17.3568 8.44287 17.2147C8.44287 17.0725 8.5039 16.9506 8.58528 16.8693C8.76837 16.6865 9.09388 16.6865 9.27697 16.8693C9.35835 16.9506 9.41938 17.0725 9.41938 17.2147C9.41938 17.3568 9.35835 17.4584 9.27697 17.56C9.17525 17.6615 9.07353 17.7021 8.93113 17.7021C8.78872 17.7021 8.70734 17.6412 8.58528 17.56Z" fill="white" fill-opacity="0.7"/>
<path fill-rule="evenodd" clip-rule="evenodd" d="M7.222 18.9209C7.12028 18.8396 7.07959 18.7177 7.07959 18.5756C7.07959 18.4334 7.14062 18.3318 7.222 18.2302C7.40509 18.0474 7.7306 18.0474 7.9137 18.2302C7.99507 18.3318 8.0561 18.4334 8.0561 18.5756C8.0561 18.7177 7.99507 18.8396 7.9137 18.9209C7.81197 19.0224 7.71025 19.0631 7.56785 19.0631C7.44578 19.0631 7.30337 19.0224 7.222 18.9209Z" fill="white" fill-opacity="0.7"/>
<path fill-rule="evenodd" clip-rule="evenodd" d="M5.81851 20.2818C5.71679 20.2005 5.65576 20.0786 5.65576 19.9365C5.65576 19.7943 5.71679 19.6927 5.81851 19.5911C6.02195 19.4083 6.34746 19.4083 6.53055 19.5911C6.63227 19.6927 6.69331 19.7943 6.69331 19.9365C6.69331 20.0786 6.63227 20.2005 6.53055 20.2818C6.42883 20.363 6.28643 20.424 6.16436 20.424C6.02195 20.424 5.89989 20.3833 5.81851 20.2818Z" fill="white" fill-opacity="0.7"/>
<path fill-rule="evenodd" clip-rule="evenodd" d="M4.47566 21.6427C4.37394 21.5411 4.33325 21.4395 4.33325 21.2974C4.33325 21.1552 4.39428 21.0536 4.47566 20.9521C4.65875 20.7692 4.98426 20.7692 5.16735 20.9521C5.26907 21.0536 5.30976 21.1552 5.30976 21.2974C5.30976 21.4395 5.24873 21.5411 5.16735 21.6427C5.08598 21.7239 4.96391 21.7849 4.82151 21.7849C4.71979 21.8052 4.59772 21.7442 4.47566 21.6427Z" fill="white" fill-opacity="0.7"/>
<path fill-rule="evenodd" clip-rule="evenodd" d="M5.16735 5.33193C5.24873 5.23037 5.30976 5.12881 5.30976 4.98663C5.30976 4.84444 5.24873 4.74288 5.16735 4.64132C4.98426 4.45851 4.65875 4.45851 4.47566 4.64132C4.37394 4.74288 4.33325 4.84444 4.33325 4.98663C4.33325 5.12881 4.39428 5.23037 4.47566 5.33193C4.55703 5.41318 4.6791 5.47412 4.82151 5.47412C4.96391 5.49443 5.08598 5.45381 5.16735 5.33193Z" fill="white" fill-opacity="0.7"/>
<path fill-rule="evenodd" clip-rule="evenodd" d="M6.53047 6.73352C6.63219 6.63195 6.69322 6.53039 6.69322 6.38821C6.69322 6.24602 6.63219 6.14446 6.53047 6.0429C6.32703 5.86009 6.00153 5.86009 5.77774 6.0429C5.67602 6.14446 5.61499 6.24602 5.61499 6.38821C5.61499 6.53039 5.67602 6.63195 5.77774 6.73352C5.87946 6.81476 6.02187 6.8757 6.14393 6.8757C6.28634 6.85539 6.42875 6.81476 6.53047 6.73352Z" fill="white" fill-opacity="0.7"/>
<path fill-rule="evenodd" clip-rule="evenodd" d="M7.9137 8.07409C7.99507 7.99284 8.0561 7.87097 8.0561 7.72878C8.0561 7.5866 7.99507 7.48504 7.9137 7.38348C7.7306 7.20067 7.40509 7.20067 7.222 7.38348C7.14062 7.46473 7.07959 7.5866 7.07959 7.72878C7.07959 7.87097 7.14062 7.97253 7.222 8.07409C7.32372 8.17566 7.42544 8.21628 7.56785 8.21628C7.68991 8.21628 7.81197 8.15534 7.9137 8.07409Z" fill="white" fill-opacity="0.7"/>
<path fill-rule="evenodd" clip-rule="evenodd" d="M9.27697 9.43502C9.35835 9.35378 9.41938 9.2319 9.41938 9.08972C9.41938 8.94753 9.35835 8.84597 9.27697 8.74441C9.09388 8.5616 8.76837 8.5616 8.58528 8.74441C8.5039 8.82566 8.44287 8.94753 8.44287 9.08972C8.44287 9.2319 8.5039 9.35378 8.58528 9.43502C8.687 9.53659 8.78872 9.57721 8.93113 9.57721C9.05319 9.57721 9.17525 9.5569 9.27697 9.43502Z" fill="white" fill-opacity="0.7"/>
<path fill-rule="evenodd" clip-rule="evenodd" d="M10.6194 10.796C10.7211 10.7147 10.7822 10.5929 10.7822 10.4507C10.7822 10.3085 10.7211 10.2069 10.6194 10.1054C10.4363 9.92256 10.0905 9.92256 9.90738 10.1054C9.80566 10.1866 9.74463 10.3085 9.74463 10.4507C9.74463 10.5929 9.80566 10.7147 9.90738 10.796C10.0091 10.8976 10.1515 10.9382 10.2736 10.9382C10.3956 10.9585 10.538 10.9179 10.6194 10.796Z" fill="white" fill-opacity="0.7"/>
<path fill-rule="evenodd" clip-rule="evenodd" d="M12.1455 11.8116C12.1455 11.6694 12.0844 11.5678 12.003 11.4663C11.82 11.2835 11.4944 11.2835 11.3114 11.4663C11.2096 11.5678 11.1689 11.6694 11.1689 11.8116C11.1689 11.9538 11.23 12.0553 11.3114 12.1569C11.3927 12.2381 11.5148 12.2991 11.6572 12.2991C11.7996 12.2991 11.9013 12.2381 12.003 12.1569C12.1048 12.0756 12.1455 11.9538 12.1455 11.8116Z" fill="white" fill-opacity="0.7"/>
<path fill-rule="evenodd" clip-rule="evenodd" d="M13.3661 13.5381C13.4678 13.4365 13.5085 13.335 13.5085 13.1928C13.5085 13.0506 13.4475 12.949 13.3661 12.8475C13.183 12.6647 12.8575 12.6647 12.6744 12.8475C12.5727 12.949 12.532 13.0506 12.532 13.1928C12.532 13.335 12.593 13.4365 12.6744 13.5381C12.7558 13.6193 12.8778 13.6803 13.0202 13.6803C13.1626 13.6803 13.2847 13.6193 13.3661 13.5381Z" fill="white" fill-opacity="0.7"/>
<path fill-rule="evenodd" clip-rule="evenodd" d="M14.729 14.8178C14.8308 14.7365 14.8918 14.6147 14.8918 14.4725C14.8918 14.3303 14.8308 14.2287 14.729 14.1272C14.5256 13.9443 14.2001 13.9443 14.017 14.1272C13.9153 14.2287 13.8542 14.3303 13.8542 14.4725C13.8542 14.6147 13.9153 14.7162 14.017 14.8178C14.1187 14.9193 14.2611 14.96 14.3832 14.96C14.4849 14.9803 14.6273 14.9397 14.729 14.8178Z" fill="white" fill-opacity="0.7"/>
<path fill-rule="evenodd" clip-rule="evenodd" d="M16.1124 16.1787C16.1938 16.0975 16.2548 15.9756 16.2548 15.8334C16.2548 15.6912 16.1938 15.5897 16.1124 15.4881C15.9293 15.3053 15.6038 15.3053 15.4207 15.4881C15.3394 15.5897 15.2783 15.6912 15.2783 15.8334C15.2783 15.9756 15.3394 16.0771 15.4207 16.1787C15.5224 16.2803 15.6242 16.3209 15.7666 16.3209C15.8683 16.3412 16.0107 16.2803 16.1124 16.1787Z" fill="white" fill-opacity="0.7"/>
<path fill-rule="evenodd" clip-rule="evenodd" d="M17.4755 17.56C17.5568 17.4787 17.6179 17.3568 17.6179 17.2147C17.6179 17.0725 17.5568 16.9506 17.4755 16.8693C17.2924 16.6865 16.9669 16.6865 16.7838 16.8693C16.7024 16.9506 16.6414 17.0725 16.6414 17.2147C16.6414 17.3568 16.7024 17.4584 16.7838 17.56C16.8855 17.6615 16.9872 17.7021 17.1296 17.7021C17.272 17.7021 17.3737 17.6412 17.4755 17.56Z" fill="white" fill-opacity="0.7"/>
<path fill-rule="evenodd" clip-rule="evenodd" d="M18.7572 18.9209C18.8589 18.8396 18.8996 18.7177 18.8996 18.5756C18.8996 18.4334 18.8386 18.3318 18.7572 18.2302C18.5741 18.0474 18.2486 18.0474 18.0655 18.2302C17.9841 18.3318 17.9231 18.4334 17.9231 18.5756C17.9231 18.7177 17.9841 18.8396 18.0655 18.9209C18.1672 19.0224 18.2689 19.0631 18.4113 19.0631C18.5334 19.0631 18.6758 19.0224 18.7572 18.9209Z" fill="white" fill-opacity="0.7"/>
<path fill-rule="evenodd" clip-rule="evenodd" d="M20.2015 20.2818C20.3033 20.2005 20.3439 20.0786 20.3439 19.9365C20.3439 19.7943 20.2829 19.6927 20.2015 19.5911C20.0184 19.4083 19.6929 19.4083 19.5098 19.5911C19.4081 19.6927 19.3674 19.7943 19.3674 19.9365C19.3674 20.0786 19.4285 20.2005 19.5098 20.2818C19.5912 20.363 19.7133 20.424 19.8557 20.424C19.9981 20.424 20.1202 20.3833 20.2015 20.2818Z" fill="white" fill-opacity="0.7"/>
<path fill-rule="evenodd" clip-rule="evenodd" d="M21.5647 21.6427C21.6665 21.5411 21.7275 21.4395 21.7275 21.2974C21.7275 21.1552 21.6665 21.0536 21.5647 20.9521C21.3613 20.7692 21.0358 20.7692 20.8527 20.9521C20.751 21.0536 20.6899 21.1552 20.6899 21.2974C20.6899 21.4395 20.751 21.5411 20.8527 21.6427C20.9544 21.7239 21.0968 21.7849 21.2189 21.7849C21.3206 21.8052 21.4427 21.7442 21.5647 21.6427Z" fill="white" fill-opacity="0.7"/>
<path fill-rule="evenodd" clip-rule="evenodd" d="M8.40211 5.7179C9.7855 4.80385 11.3113 4.3773 12.9999 4.35698C14.6477 4.35698 16.1735 4.80385 17.5976 5.7179L20.5271 2.79294C18.2283 1.04609 15.7463 0.172668 12.9999 0.172668C10.2534 0.172668 7.73076 1.04609 5.49292 2.79294L8.40211 5.7179Z" fill="white" fill-opacity="0.7"/>
<path fill-rule="evenodd" clip-rule="evenodd" d="M5.47253 17.7224C4.53671 16.3006 4.08914 14.7975 4.08914 13.1725C4.08914 11.5272 4.53671 10.0038 5.47253 8.62254L2.56334 5.7179C0.854447 7.95224 0 10.4303 0 13.1928C0 15.9146 0.854447 18.413 2.58369 20.688L5.47253 17.7224Z" fill="white" fill-opacity="0.7"/>
<path fill-rule="evenodd" clip-rule="evenodd" d="M17.5773 20.6271C16.1939 21.5614 14.6681 22.0489 13.0203 22.0692C11.3317 22.0692 9.78558 21.6224 8.40219 20.6474L5.47266 23.552C7.73084 25.3192 10.2535 26.1926 13.0203 26.1723C15.7667 26.152 18.2487 25.2583 20.4865 23.552L17.5773 20.6271Z" fill="white" fill-opacity="0.7"/>
<path fill-rule="evenodd" clip-rule="evenodd" d="M20.4458 8.58195C21.3816 10.0038 21.8699 11.5475 21.8292 13.2131C21.8088 14.8381 21.3409 16.3209 20.4458 17.6818L23.3753 20.5865C25.1046 18.3521 25.9997 15.874 25.9997 13.1522C26.0201 10.3897 25.1453 7.87102 23.3753 5.61636L20.4458 8.58195Z" fill="white" fill-opacity="0.7"/>
<path fill-rule="evenodd" clip-rule="evenodd" d="M23.4974 21.5411C24.6163 21.5411 25.5521 22.4552 25.5521 23.5927C25.5521 24.7098 24.6366 25.6442 23.4974 25.6442C22.3785 25.6442 21.4426 24.7302 21.4426 23.5927C21.4426 22.4552 22.3581 21.5411 23.4974 21.5411Z" fill="white" fill-opacity="0.7"/>
<path fill-rule="evenodd" clip-rule="evenodd" d="M2.54294 21.5411C3.66186 21.5411 4.57734 22.4552 4.57734 23.5927C4.57734 24.7098 3.66186 25.6442 2.54294 25.6442C1.42402 25.6442 0.508545 24.7302 0.508545 23.5927C0.508545 22.4552 1.42402 21.5411 2.54294 21.5411Z" fill="white" fill-opacity="0.7"/>
<path fill-rule="evenodd" clip-rule="evenodd" d="M23.5381 0.619537C24.657 0.619537 25.5725 1.53359 25.5725 2.67107C25.5725 3.80856 24.657 4.72261 23.5381 4.72261C22.4191 4.72261 21.5037 3.80856 21.5037 2.67107C21.5037 1.53359 22.4191 0.619537 23.5381 0.619537Z" fill="white" fill-opacity="0.7"/>
<path fill-rule="evenodd" clip-rule="evenodd" d="M2.50225 0.619537C3.62117 0.619537 4.557 1.53359 4.557 2.65076C4.557 3.76793 3.64152 4.68198 2.50225 4.68198C1.38333 4.68198 0.44751 3.76793 0.44751 2.65076C0.44751 1.53359 1.36299 0.619537 2.50225 0.619537Z" fill="white" fill-opacity="0.7"/>
</svg>
