<svg width="26" height="27" viewBox="0 0 26 27" fill="none" xmlns="http://www.w3.org/2000/svg">
<path fill-rule="evenodd" clip-rule="evenodd" d="M20.8119 5.33193C20.7102 5.23037 20.6491 5.12881 20.6491 4.98663C20.6491 4.84444 20.7102 4.74288 20.8119 4.64132C21.0153 4.45851 21.3408 4.45851 21.5646 4.64132C21.6663 4.74288 21.7274 4.84444 21.7274 4.98663C21.7274 5.12881 21.6663 5.23037 21.5646 5.33193C21.4629 5.41318 21.3205 5.47412 21.1984 5.47412C21.056 5.49443 20.9136 5.45381 20.8119 5.33193Z" fill="#969696"/>
<path fill-rule="evenodd" clip-rule="evenodd" d="M19.5099 6.73352C19.4285 6.63195 19.3675 6.53039 19.3675 6.38821C19.3675 6.24602 19.4285 6.14446 19.5099 6.0429C19.693 5.86009 20.0185 5.86009 20.2016 6.0429C20.283 6.14446 20.344 6.24602 20.344 6.38821C20.344 6.53039 20.283 6.63195 20.2016 6.73352C20.0999 6.81476 19.9982 6.8757 19.8557 6.8757C19.7133 6.8757 19.6116 6.81476 19.5099 6.73352Z" fill="#969696"/>
<path fill-rule="evenodd" clip-rule="evenodd" d="M18.0858 8.07409C18.0044 7.99284 17.9434 7.87097 17.9434 7.72878C17.9434 7.5866 18.0044 7.48504 18.0858 7.38348C18.2689 7.20067 18.5944 7.20067 18.7775 7.38348C18.8589 7.46473 18.9199 7.5866 18.9199 7.72878C18.9199 7.87097 18.8589 7.97253 18.7775 8.07409C18.6758 8.17566 18.5741 8.21628 18.4316 8.21628C18.2892 8.21628 18.1672 8.15534 18.0858 8.07409Z" fill="#969696"/>
<path fill-rule="evenodd" clip-rule="evenodd" d="M16.7228 9.43502C16.6211 9.35378 16.56 9.2319 16.56 9.08972C16.56 8.94753 16.6211 8.84597 16.7228 8.74441C16.9262 8.5616 17.2517 8.5616 17.4755 8.74441C17.5772 8.82566 17.6383 8.94753 17.6383 9.08972C17.6383 9.2319 17.5772 9.35378 17.4755 9.43502C17.3738 9.53659 17.2314 9.57721 17.1093 9.57721C16.9669 9.57721 16.8448 9.5569 16.7228 9.43502Z" fill="#969696"/>
<path fill-rule="evenodd" clip-rule="evenodd" d="M15.4207 10.796C15.319 10.7147 15.2783 10.5929 15.2783 10.4507C15.2783 10.3085 15.3394 10.2069 15.4207 10.1054C15.6038 9.92256 15.9293 9.92256 16.1124 10.1054C16.2141 10.1866 16.2548 10.3085 16.2548 10.4507C16.2548 10.5929 16.1938 10.7147 16.1124 10.796C16.031 10.8976 15.909 10.9382 15.7666 10.9382C15.6445 10.9585 15.5021 10.9179 15.4207 10.796Z" fill="#969696"/>
<path fill-rule="evenodd" clip-rule="evenodd" d="M13.8543 11.8116C13.8543 11.6694 13.9153 11.5678 13.9967 11.4663C14.1798 11.2835 14.5053 11.2835 14.6884 11.4663C14.7901 11.5678 14.8308 11.6694 14.8308 11.8116C14.8308 11.9538 14.7698 12.0553 14.6884 12.1569C14.607 12.2381 14.4849 12.2991 14.3425 12.2991C14.2001 12.2991 14.0984 12.2381 13.9967 12.1569C13.895 12.0756 13.8543 11.9538 13.8543 11.8116Z" fill="#969696"/>
<path fill-rule="evenodd" clip-rule="evenodd" d="M11.3113 14.8178C11.2299 14.7365 11.1689 14.6147 11.1689 14.4725C11.1689 14.3303 11.2299 14.2287 11.3113 14.1272C11.4944 13.9443 11.8199 13.9443 12.003 14.1272C12.1047 14.2287 12.1454 14.3303 12.1454 14.4725C12.1454 14.6147 12.0843 14.7162 12.003 14.8178C11.9216 14.9193 11.7995 14.96 11.6571 14.96C11.535 14.9803 11.413 14.9397 11.3113 14.8178Z" fill="#969696"/>
<path fill-rule="evenodd" clip-rule="evenodd" d="M9.9075 16.1787C9.80578 16.0975 9.74475 15.9756 9.74475 15.8334C9.74475 15.6912 9.80578 15.5897 9.9075 15.4881C10.1109 15.3053 10.4364 15.3053 10.6602 15.4881C10.762 15.5897 10.823 15.6912 10.823 15.8334C10.823 15.9756 10.762 16.0771 10.6602 16.1787C10.5585 16.2803 10.4161 16.3209 10.294 16.3209C10.1313 16.3412 10.0092 16.2803 9.9075 16.1787Z" fill="#969696"/>
<path fill-rule="evenodd" clip-rule="evenodd" d="M8.58519 17.56C8.50381 17.4787 8.44278 17.3568 8.44278 17.2147C8.44278 17.0725 8.50381 16.9506 8.58519 16.8693C8.76828 16.6865 9.09378 16.6865 9.27688 16.8693C9.35826 16.9506 9.41929 17.0725 9.41929 17.2147C9.41929 17.3568 9.35826 17.4584 9.27688 17.56C9.17516 17.6615 9.07344 17.7021 8.93103 17.7021C8.78863 17.7021 8.70725 17.6412 8.58519 17.56Z" fill="#969696"/>
<path fill-rule="evenodd" clip-rule="evenodd" d="M7.22212 18.9209C7.1204 18.8396 7.07971 18.7177 7.07971 18.5756C7.07971 18.4334 7.14074 18.3318 7.22212 18.2302C7.40522 18.0474 7.73072 18.0474 7.91382 18.2302C7.99519 18.3318 8.05622 18.4334 8.05622 18.5756C8.05622 18.7177 7.99519 18.8396 7.91382 18.9209C7.8121 19.0224 7.71038 19.0631 7.56797 19.0631C7.4459 19.0631 7.3035 19.0224 7.22212 18.9209Z" fill="#969696"/>
<path fill-rule="evenodd" clip-rule="evenodd" d="M5.81842 20.2818C5.7167 20.2005 5.65567 20.0786 5.65567 19.9365C5.65567 19.7943 5.7167 19.6927 5.81842 19.5911C6.02186 19.4083 6.34737 19.4083 6.53046 19.5911C6.63218 19.6927 6.69321 19.7943 6.69321 19.9365C6.69321 20.0786 6.63218 20.2005 6.53046 20.2818C6.42874 20.363 6.28633 20.424 6.16427 20.424C6.02186 20.424 5.8998 20.3833 5.81842 20.2818Z" fill="#969696"/>
<path fill-rule="evenodd" clip-rule="evenodd" d="M4.47569 21.6427C4.37397 21.5411 4.33328 21.4395 4.33328 21.2974C4.33328 21.1552 4.39431 21.0536 4.47569 20.9521C4.65879 20.7692 4.98429 20.7692 5.16738 20.9521C5.2691 21.0536 5.30979 21.1552 5.30979 21.2974C5.30979 21.4395 5.24876 21.5411 5.16738 21.6427C5.08601 21.7239 4.96394 21.7849 4.82154 21.7849C4.71982 21.8052 4.59775 21.7442 4.47569 21.6427Z" fill="#969696"/>
<path fill-rule="evenodd" clip-rule="evenodd" d="M5.16738 5.33193C5.24876 5.23037 5.30979 5.12881 5.30979 4.98663C5.30979 4.84444 5.24876 4.74288 5.16738 4.64132C4.98429 4.45851 4.65879 4.45851 4.47569 4.64132C4.37397 4.74288 4.33328 4.84444 4.33328 4.98663C4.33328 5.12881 4.39431 5.23037 4.47569 5.33193C4.55707 5.41318 4.67913 5.47412 4.82154 5.47412C4.96394 5.49443 5.08601 5.45381 5.16738 5.33193Z" fill="#969696"/>
<path fill-rule="evenodd" clip-rule="evenodd" d="M6.53044 6.73352C6.63216 6.63195 6.69319 6.53039 6.69319 6.38821C6.69319 6.24602 6.63216 6.14446 6.53044 6.0429C6.327 5.86009 6.0015 5.86009 5.77771 6.0429C5.67599 6.14446 5.61496 6.24602 5.61496 6.38821C5.61496 6.53039 5.67599 6.63195 5.77771 6.73352C5.87943 6.81476 6.02184 6.8757 6.1439 6.8757C6.28631 6.85539 6.42872 6.81476 6.53044 6.73352Z" fill="#969696"/>
<path fill-rule="evenodd" clip-rule="evenodd" d="M7.91382 8.07409C7.99519 7.99284 8.05622 7.87097 8.05622 7.72878C8.05622 7.5866 7.99519 7.48504 7.91382 7.38348C7.73072 7.20067 7.40522 7.20067 7.22212 7.38348C7.14074 7.46473 7.07971 7.5866 7.07971 7.72878C7.07971 7.87097 7.14074 7.97253 7.22212 8.07409C7.32384 8.17566 7.42556 8.21628 7.56797 8.21628C7.69003 8.21628 7.8121 8.15534 7.91382 8.07409Z" fill="#969696"/>
<path fill-rule="evenodd" clip-rule="evenodd" d="M9.27688 9.43502C9.35826 9.35378 9.41929 9.2319 9.41929 9.08972C9.41929 8.94753 9.35826 8.84597 9.27688 8.74441C9.09378 8.5616 8.76828 8.5616 8.58519 8.74441C8.50381 8.82566 8.44278 8.94753 8.44278 9.08972C8.44278 9.2319 8.50381 9.35378 8.58519 9.43502C8.68691 9.53659 8.78863 9.57721 8.93103 9.57721C9.0531 9.57721 9.17516 9.5569 9.27688 9.43502Z" fill="#969696"/>
<path fill-rule="evenodd" clip-rule="evenodd" d="M10.6195 10.796C10.7213 10.7147 10.7823 10.5929 10.7823 10.4507C10.7823 10.3085 10.7213 10.2069 10.6195 10.1054C10.4364 9.92256 10.0906 9.92256 9.9075 10.1054C9.80578 10.1866 9.74475 10.3085 9.74475 10.4507C9.74475 10.5929 9.80578 10.7147 9.9075 10.796C10.0092 10.8976 10.1516 10.9382 10.2737 10.9382C10.3958 10.9585 10.5382 10.9179 10.6195 10.796Z" fill="#969696"/>
<path fill-rule="evenodd" clip-rule="evenodd" d="M12.1454 11.8116C12.1454 11.6694 12.0843 11.5678 12.003 11.4663C11.8199 11.2835 11.4944 11.2835 11.3113 11.4663C11.2095 11.5678 11.1689 11.6694 11.1689 11.8116C11.1689 11.9538 11.2299 12.0553 11.3113 12.1569C11.3926 12.2381 11.5147 12.2991 11.6571 12.2991C11.7995 12.2991 11.9012 12.2381 12.003 12.1569C12.1047 12.0756 12.1454 11.9538 12.1454 11.8116Z" fill="#969696"/>
<path fill-rule="evenodd" clip-rule="evenodd" d="M13.366 13.5381C13.4677 13.4365 13.5084 13.335 13.5084 13.1928C13.5084 13.0506 13.4474 12.949 13.366 12.8475C13.1829 12.6647 12.8574 12.6647 12.6743 12.8475C12.5726 12.949 12.5319 13.0506 12.5319 13.1928C12.5319 13.335 12.593 13.4365 12.6743 13.5381C12.7557 13.6193 12.8778 13.6803 13.0202 13.6803C13.1626 13.6803 13.2847 13.6193 13.366 13.5381Z" fill="#969696"/>
<path fill-rule="evenodd" clip-rule="evenodd" d="M14.7291 14.8178C14.8308 14.7365 14.8918 14.6147 14.8918 14.4725C14.8918 14.3303 14.8308 14.2287 14.7291 14.1272C14.5256 13.9443 14.2001 13.9443 14.017 14.1272C13.9153 14.2287 13.8543 14.3303 13.8543 14.4725C13.8543 14.6147 13.9153 14.7162 14.017 14.8178C14.1188 14.9193 14.2612 14.96 14.3832 14.96C14.4849 14.9803 14.6273 14.9397 14.7291 14.8178Z" fill="#969696"/>
<path fill-rule="evenodd" clip-rule="evenodd" d="M16.1124 16.1787C16.1938 16.0975 16.2548 15.9756 16.2548 15.8334C16.2548 15.6912 16.1938 15.5897 16.1124 15.4881C15.9293 15.3053 15.6038 15.3053 15.4207 15.4881C15.3394 15.5897 15.2783 15.6912 15.2783 15.8334C15.2783 15.9756 15.3394 16.0771 15.4207 16.1787C15.5224 16.2803 15.6242 16.3209 15.7666 16.3209C15.8683 16.3412 16.0107 16.2803 16.1124 16.1787Z" fill="#969696"/>
<path fill-rule="evenodd" clip-rule="evenodd" d="M17.4755 17.56C17.5568 17.4787 17.6179 17.3568 17.6179 17.2147C17.6179 17.0725 17.5568 16.9506 17.4755 16.8693C17.2924 16.6865 16.9669 16.6865 16.7838 16.8693C16.7024 16.9506 16.6414 17.0725 16.6414 17.2147C16.6414 17.3568 16.7024 17.4584 16.7838 17.56C16.8855 17.6615 16.9872 17.7021 17.1296 17.7021C17.272 17.7021 17.3737 17.6412 17.4755 17.56Z" fill="#969696"/>
<path fill-rule="evenodd" clip-rule="evenodd" d="M18.7572 18.9209C18.8589 18.8396 18.8996 18.7177 18.8996 18.5756C18.8996 18.4334 18.8386 18.3318 18.7572 18.2302C18.5741 18.0474 18.2486 18.0474 18.0655 18.2302C17.9841 18.3318 17.9231 18.4334 17.9231 18.5756C17.9231 18.7177 17.9841 18.8396 18.0655 18.9209C18.1672 19.0224 18.2689 19.0631 18.4113 19.0631C18.5334 19.0631 18.6758 19.0224 18.7572 18.9209Z" fill="#969696"/>
<path fill-rule="evenodd" clip-rule="evenodd" d="M20.2016 20.2818C20.3033 20.2005 20.344 20.0786 20.344 19.9365C20.344 19.7943 20.283 19.6927 20.2016 19.5911C20.0185 19.4083 19.693 19.4083 19.5099 19.5911C19.4082 19.6927 19.3675 19.7943 19.3675 19.9365C19.3675 20.0786 19.4285 20.2005 19.5099 20.2818C19.5913 20.363 19.7133 20.424 19.8557 20.424C19.9982 20.424 20.1202 20.3833 20.2016 20.2818Z" fill="#969696"/>
<path fill-rule="evenodd" clip-rule="evenodd" d="M21.5646 21.6427C21.6664 21.5411 21.7274 21.4395 21.7274 21.2974C21.7274 21.1552 21.6664 21.0536 21.5646 20.9521C21.3612 20.7692 21.0357 20.7692 20.8526 20.9521C20.7509 21.0536 20.6898 21.1552 20.6898 21.2974C20.6898 21.4395 20.7509 21.5411 20.8526 21.6427C20.9543 21.7239 21.0967 21.7849 21.2188 21.7849C21.3205 21.8052 21.4426 21.7442 21.5646 21.6427Z" fill="#969696"/>
<path fill-rule="evenodd" clip-rule="evenodd" d="M8.40208 5.7179C9.78547 4.80385 11.3113 4.3773 12.9998 4.35698C14.6477 4.35698 16.1735 4.80385 17.5976 5.7179L20.5271 2.79294C18.2282 1.04609 15.7463 0.172668 12.9998 0.172668C10.2534 0.172668 7.73073 1.04609 5.49289 2.79294L8.40208 5.7179Z" fill="#969696"/>
<path fill-rule="evenodd" clip-rule="evenodd" d="M5.47253 17.7224C4.53671 16.3006 4.08914 14.7975 4.08914 13.1725C4.08914 11.5272 4.53671 10.0038 5.47253 8.62254L2.56334 5.7179C0.854447 7.95224 0 10.4303 0 13.1928C0 15.9146 0.854447 18.413 2.58369 20.688L5.47253 17.7224Z" fill="#969696"/>
<path fill-rule="evenodd" clip-rule="evenodd" d="M17.5772 20.6271C16.1939 21.5614 14.6681 22.0489 13.0202 22.0692C11.3316 22.0692 9.78549 21.6224 8.4021 20.6474L5.47256 23.552C7.73075 25.3192 10.2534 26.1926 13.0202 26.1723C15.7666 26.152 18.2486 25.2583 20.4864 23.552L17.5772 20.6271Z" fill="#969696"/>
<path fill-rule="evenodd" clip-rule="evenodd" d="M20.4457 8.58195C21.3816 10.0038 21.8698 11.5475 21.8291 13.2131C21.8088 14.8381 21.3409 16.3209 20.4457 17.6818L23.3753 20.5865C25.1045 18.3521 25.9997 15.874 25.9997 13.1522C26.02 10.3897 25.1452 7.87102 23.3753 5.61636L20.4457 8.58195Z" fill="#969696"/>
<path fill-rule="evenodd" clip-rule="evenodd" d="M23.4973 21.5411C24.6162 21.5411 25.5521 22.4552 25.5521 23.5927C25.5521 24.7098 24.6366 25.6442 23.4973 25.6442C22.3784 25.6442 21.4426 24.7302 21.4426 23.5927C21.4426 22.4552 22.358 21.5411 23.4973 21.5411Z" fill="#969696"/>
<path fill-rule="evenodd" clip-rule="evenodd" d="M2.543 21.5411C3.66192 21.5411 4.5774 22.4552 4.5774 23.5927C4.5774 24.7098 3.66192 25.6442 2.543 25.6442C1.42409 25.6442 0.508606 24.7302 0.508606 23.5927C0.508606 22.4552 1.42409 21.5411 2.543 21.5411Z" fill="#969696"/>
<path fill-rule="evenodd" clip-rule="evenodd" d="M23.538 0.619537C24.6569 0.619537 25.5724 1.53359 25.5724 2.67107C25.5724 3.80856 24.6569 4.72261 23.538 4.72261C22.4191 4.72261 21.5036 3.80856 21.5036 2.67107C21.5036 1.53359 22.4191 0.619537 23.538 0.619537Z" fill="#969696"/>
<path fill-rule="evenodd" clip-rule="evenodd" d="M2.50231 0.619537C3.62123 0.619537 4.55706 1.53359 4.55706 2.65076C4.55706 3.76793 3.64158 4.68198 2.50231 4.68198C1.38339 4.68198 0.447571 3.76793 0.447571 2.65076C0.447571 1.53359 1.36305 0.619537 2.50231 0.619537Z" fill="#969696"/>
</svg>
