<?xml version="1.0" standalone="no"?>
<!DOCTYPE svg PUBLIC "-//W3C//DTD SVG 20010904//EN"
 "http://www.w3.org/TR/2001/REC-SVG-20010904/DTD/svg10.dtd">
<svg version="1.0" xmlns="http://www.w3.org/2000/svg"
 width="866.000000pt" height="650.000000pt" viewBox="0 0 866.000000 650.000000"
 preserveAspectRatio="xMidYMid meet">
<metadata>
Created by potrace 1.16, written by Peter Selinger 2001-2019
</metadata>
<g transform="translate(0.000000,650.000000) scale(0.100000,-0.100000)"
fill="#000000" stroke="none">
<path d="M4120 5429 c-235 -24 -474 -93 -688 -199 -126 -63 -277 -155 -345
-212 l-28 -23 246 -245 245 -245 27 18 c121 77 312 152 470 184 125 25 435 25
551 0 133 -29 258 -74 385 -140 l118 -61 245 245 246 246 -104 70 c-190 129
-346 207 -548 273 -259 85 -547 116 -820 89z"/>
<path d="M2460 5351 c-96 -31 -177 -102 -219 -191 -22 -46 -26 -69 -26 -140 1
-106 31 -174 105 -244 76 -71 127 -91 235 -91 77 0 98 4 146 26 69 33 129 91
166 161 25 47 28 63 28 148 0 81 -4 102 -24 140 -40 76 -86 125 -153 160 -55
30 -73 34 -148 37 -47 1 -96 -1 -110 -6z"/>
<path d="M6000 5351 c-114 -35 -204 -128 -235 -246 -44 -163 36 -330 194 -404
46 -21 70 -26 136 -26 71 0 89 4 148 33 323 159 208 656 -151 651 -37 0 -78
-4 -92 -8z"/>
<path d="M2902 4694 c-58 -41 -44 -124 25 -143 32 -9 42 -8 63 8 35 25 46 62
31 99 -20 48 -77 66 -119 36z"/>
<path d="M5655 4698 c-55 -32 -61 -92 -14 -132 35 -30 32 -29 81 -16 66 19 87
77 46 125 -26 30 -83 41 -113 23z"/>
<path d="M5821 4274 c-132 -135 -241 -250 -241 -255 0 -5 11 -26 24 -47 80
-127 152 -312 182 -469 23 -118 23 -355 0 -483 -29 -162 -96 -339 -188 -493
l-22 -38 244 -244 c134 -134 247 -242 252 -239 5 3 44 59 87 124 172 261 269
499 322 796 26 146 32 465 10 609 -41 281 -136 543 -281 780 -40 66 -138 205
-145 205 -1 0 -111 -111 -244 -246z"/>
<path d="M2517 4438 c-200 -282 -325 -600 -367 -938 -15 -126 -12 -412 6 -541
30 -222 109 -467 211 -659 53 -100 190 -310 202 -310 9 0 474 475 479 490 2 5
-17 44 -42 87 -240 412 -242 944 -6 1356 27 48 50 91 50 95 0 9 -473 482 -482
482 -3 0 -26 -28 -51 -62z"/>
<path d="M3105 4445 c-35 -35 -33 -76 6 -109 35 -30 74 -33 109 -9 33 23 40
33 40 66 0 70 -103 105 -155 52z"/>
<path d="M5432 4463 c-21 -8 -44 -63 -38 -89 9 -34 45 -64 79 -64 32 0 87 47
87 75 0 24 -27 72 -45 79 -19 7 -64 7 -83 -1z"/>
<path d="M3373 4240 c-44 -18 -58 -90 -24 -131 27 -34 86 -32 117 5 32 37 30
71 -5 107 -30 30 -50 34 -88 19z"/>
<path d="M5200 4237 c-32 -16 -52 -59 -44 -91 22 -91 158 -75 158 19 0 60 -62
99 -114 72z"/>
<path d="M3610 4013 c-51 -19 -68 -89 -31 -134 27 -34 86 -32 117 5 13 15 24
36 24 46 0 60 -56 103 -110 83z"/>
<path d="M4974 4010 c-28 -11 -54 -48 -54 -77 0 -12 11 -34 24 -50 49 -57 156
-21 156 52 0 56 -72 98 -126 75z"/>
<path d="M3820 3777 c-36 -18 -52 -57 -39 -94 20 -60 105 -76 146 -29 31 37
29 71 -6 107 -32 31 -61 36 -101 16z"/>
<path d="M4735 3767 c-58 -50 -25 -141 51 -141 63 0 107 78 71 125 -33 43 -84
49 -122 16z"/>
<path d="M4039 3531 c-33 -33 -35 -50 -14 -90 25 -49 90 -57 130 -16 52 51 11
135 -66 135 -11 0 -34 -13 -50 -29z"/>
<path d="M4496 3538 c-58 -53 -26 -138 53 -138 84 0 113 108 40 145 -39 21
-64 19 -93 -7z"/>
<path d="M4293 3320 c-54 -22 -66 -96 -22 -136 53 -48 148 2 135 70 -11 55
-65 86 -113 66z"/>
<path d="M4047 3098 c-41 -32 -39 -115 3 -138 44 -24 95 -10 116 32 19 37 10
82 -19 103 -26 18 -77 20 -100 3z"/>
<path d="M4495 3088 c-18 -16 -26 -34 -27 -57 -2 -72 95 -109 147 -56 75 74
-40 181 -120 113z"/>
<path d="M3804 2857 c-57 -49 -18 -137 61 -137 48 0 88 37 88 80 0 70 -92 105
-149 57z"/>
<path d="M4735 2863 c-23 -22 -36 -59 -28 -80 12 -36 46 -63 79 -63 43 0 73
27 80 72 5 30 2 41 -19 62 -31 31 -86 35 -112 9z"/>
<path d="M3587 2630 c-34 -27 -38 -89 -7 -120 31 -31 93 -27 119 6 42 53 16
120 -49 130 -27 4 -42 1 -63 -16z"/>
<path d="M4967 2630 c-33 -26 -41 -63 -23 -99 17 -31 34 -41 75 -41 57 0 93
56 71 110 -20 49 -80 64 -123 30z"/>
<path d="M3355 2395 c-32 -31 -34 -86 -5 -115 31 -31 93 -27 119 6 43 55 8
134 -59 134 -19 0 -40 -9 -55 -25z"/>
<path d="M5175 2395 c-52 -51 -17 -135 56 -135 50 0 79 27 79 75 0 46 -37 85
-80 85 -19 0 -40 -9 -55 -25z"/>
<path d="M3115 2165 c-33 -32 -34 -83 -2 -113 33 -31 90 -30 122 3 52 51 15
135 -60 135 -25 0 -44 -8 -60 -25z"/>
<path d="M5432 2183 c-7 -3 -19 -18 -28 -35 -30 -57 6 -118 69 -118 39 0 62
14 76 48 14 33 2 77 -27 98 -17 13 -65 17 -90 7z"/>
<path d="M3300 1745 c-234 -234 -244 -245 -225 -260 69 -54 256 -171 341 -214
271 -136 511 -197 819 -208 351 -13 664 54 973 207 128 64 333 190 360 222 9
11 -35 60 -232 257 l-244 244 -58 -36 c-361 -217 -755 -263 -1154 -135 -78 25
-221 94 -283 137 -25 17 -47 31 -49 31 -2 0 -113 -110 -248 -245z"/>
<path d="M2897 1948 c-59 -46 -28 -147 45 -148 40 0 57 9 73 41 21 40 19 66
-10 94 -27 28 -80 34 -108 13z"/>
<path d="M5644 1937 c-56 -48 -17 -137 60 -137 37 0 86 40 86 71 0 76 -88 116
-146 66z"/>
<path d="M2466 1824 c-117 -36 -200 -123 -231 -241 -20 -77 -19 -118 6 -198
17 -57 31 -78 82 -130 82 -82 148 -109 258 -103 183 10 319 153 322 338 3 232
-217 401 -437 334z"/>
<path d="M5995 1827 c-140 -47 -221 -138 -247 -277 -28 -148 58 -308 200 -373
72 -33 207 -31 283 4 70 33 130 91 165 161 39 75 45 190 14 270 -28 76 -104
159 -177 193 -67 32 -177 42 -238 22z"/>
</g>
</svg>
