<svg width="624" height="558" viewBox="0 0 624 558" fill="none" xmlns="http://www.w3.org/2000/svg">
<path fill-rule="evenodd" clip-rule="evenodd" d="M491.784 30.8392L613.079 240.544C626.792 264.375 626.698 293.714 612.833 317.456L491.537 527.161C480.533 546.206 460.213 557.955 438.204 558H195.923C168.556 557.949 143.281 543.36 129.565 519.698L8.26996 309.685C-2.75665 290.602 -2.75665 267.09 8.26996 248.007L129.565 38.3022C143.27 14.6592 168.516 0.0734693 195.861 0.000240623H438.204C460.301 -0.0433315 480.736 11.7182 491.784 30.8392ZM55.7276 255.936L42.0104 279.429C50.5866 264.783 66.3493 255.825 83.3472 255.936H285.829C294.085 255.926 301.711 251.534 305.849 244.406L420.962 45.4287H176.154C192.596 46.1236 207.731 54.5676 216.935 68.1812L271.68 163.014C277.319 173.842 273.423 187.18 262.837 193.287C252.251 199.395 238.723 196.108 232.135 185.829L164.167 68.1812L55.7276 255.936ZM420.857 512.687H203.805L271.73 394.691C276.26 387.605 276.534 378.603 272.444 371.255C268.354 363.906 260.561 359.398 252.154 359.519C243.748 359.64 236.087 364.37 232.21 371.833L164.285 489.829L150.762 513.429C158.338 500.176 159.096 484.091 152.799 470.184L55.7281 301.714H285.809C294.056 301.737 301.671 306.135 305.816 313.267L408.013 490.324C417.16 503.771 432.15 512.072 448.397 512.687H420.857ZM461.056 489.429L569.323 301.614L569.261 301.675L583.002 278.044C574.449 292.699 558.73 301.664 541.778 301.552H433.327C420.735 301.552 410.527 291.331 410.527 278.723C410.527 266.115 420.735 255.894 433.327 255.894H569.569C569.569 255.894 481.021 101.397 477.139 95.9677C466.343 80.806 465.332 60.7437 474.551 44.5715L461.056 68.0792L346.011 267.247C341.92 274.393 341.92 283.176 346.011 290.323L461.056 489.429Z" fill="white"/>
</svg>
