<svg width="557" height="498" viewBox="0 0 557 498" fill="none" xmlns="http://www.w3.org/2000/svg">
<path fill-rule="evenodd" clip-rule="evenodd" d="M438.904 27.5231L547.157 214.679C559.395 235.947 559.311 262.132 546.937 283.321L438.684 470.477C428.863 487.474 410.728 497.96 391.086 498H174.856C150.432 497.954 127.875 484.934 115.633 463.817L7.38072 276.385C-2.46024 259.354 -2.46024 238.371 7.38072 221.34L115.633 34.1837C127.865 13.083 150.396 0.0655694 174.801 0.00021475H391.086C410.806 -0.0386722 429.044 10.4582 438.904 27.5231ZM49.7354 228.416L37.4932 249.383C45.1472 236.312 59.215 228.317 74.3852 228.416H255.095C262.463 228.407 269.269 224.487 272.962 218.126L375.697 40.5439H157.213C171.887 41.1641 185.394 48.7001 193.609 60.8499L242.467 145.486C247.5 155.149 244.023 167.053 234.575 172.504C225.127 177.954 213.054 175.021 207.174 165.847L146.515 60.8499L49.7354 228.416ZM375.603 457.56H181.89L242.512 352.251C246.555 345.927 246.799 337.893 243.149 331.335C239.499 324.776 232.543 320.753 225.041 320.861C217.539 320.969 210.702 325.19 207.241 331.851L146.62 437.159L134.551 458.221C141.312 446.394 141.989 432.038 136.369 419.626L49.7359 269.272H255.077C262.437 269.292 269.233 273.217 272.933 279.582L364.14 437.601C372.304 449.602 385.682 457.011 400.182 457.56H375.603ZM411.48 436.802L508.105 269.182L508.05 269.237L520.314 248.147C512.681 261.226 498.651 269.227 483.523 269.127H386.733C375.495 269.127 366.385 260.005 366.385 248.753C366.385 237.5 375.495 228.379 386.733 228.379H508.325C508.325 228.379 429.298 90.4943 425.833 85.6485C416.198 72.1171 415.297 54.2121 423.524 39.7789L411.48 60.7589L308.806 238.511C305.154 244.889 305.154 252.727 308.806 259.105L411.48 436.802Z" fill="#111111"/>
</svg>
