<svg width="15" height="15" viewBox="0 0 15 15" fill="none" xmlns="http://www.w3.org/2000/svg">
<path fill-rule="evenodd" clip-rule="evenodd" d="M10.9167 9.66667H10.2583L10.025 9.44167C11.025 8.275 11.5417 6.68334 11.2583 4.99167C10.8667 2.675 8.93334 0.825002 6.6 0.541669C3.075 0.108336 0.108336 3.075 0.541669 6.6C0.825003 8.93334 2.675 10.8667 4.99167 11.2583C6.68334 11.5417 8.275 11.025 9.44167 10.025L9.66667 10.2583V10.9167L13.2083 14.4583C13.55 14.8 14.1083 14.8 14.45 14.4583C14.7917 14.1167 14.7917 13.5583 14.45 13.2167L10.9167 9.66667ZM5.91667 9.66667C3.84167 9.66667 2.16667 7.99167 2.16667 5.91667C2.16667 3.84167 3.84167 2.16667 5.91667 2.16667C7.99167 2.16667 9.66667 3.84167 9.66667 5.91667C9.66667 7.99167 7.99167 9.66667 5.91667 9.66667Z" fill="#969696"/>
</svg>
