<svg width="30" height="30" viewBox="0 0 30 30" fill="none" xmlns="http://www.w3.org/2000/svg">
<rect width="30" height="30" rx="15" fill="white"/>
<rect width="30" height="30" rx="15" fill="#FF961B" fill-opacity="0.1"/>
<path d="M10.4761 15.3636C10.4761 13.0128 9.04141 11.6278 7.13445 11.6278C5.22394 11.6278 3.79283 13.0128 3.79283 15.3636C3.79283 17.7109 5.22394 19.0994 7.13445 19.0994C9.04141 19.0994 10.4761 17.7145 10.4761 15.3636ZM9.15149 15.3636C9.15149 17.0185 8.32053 17.9169 7.13445 17.9169C5.95192 17.9169 5.1174 17.0185 5.1174 15.3636C5.1174 13.7088 5.95192 12.8104 7.13445 12.8104C8.32053 12.8104 9.15149 13.7088 9.15149 15.3636ZM16.7061 11.7273V16.3686C16.7061 17.2812 16.0705 17.9347 15.0726 17.9347C14.0712 17.9347 13.4391 17.2812 13.4391 16.3686V11.7273H12.1216V16.4787C12.1216 18.0412 13.2935 19.1101 15.0726 19.1101C16.8446 19.1101 18.0236 18.0412 18.0236 16.4787V11.7273H16.7061ZM19.536 12.8317H21.7839V19H23.0907V12.8317H25.3386V11.7273H19.536V12.8317Z" fill="#FF961B"/>
</svg>
