<svg width="18" height="18" viewBox="0 0 18 18" fill="none" xmlns="http://www.w3.org/2000/svg">
<path fill-rule="evenodd" clip-rule="evenodd" d="M18 0.999996V16.9999C17.9999 17.5551 17.5551 17.9999 17 17.9999L11.4609 17.9999V11.175H13.5703L14.6249 8.24998H11.4609V7.27498C11.6641 6.31633 11.8963 5.80336 13.5703 5.32499H14.6249V3.375C14.4574 3.41982 14.0321 3.40789 13.5048 3.3931C13.1992 3.38453 12.8593 3.375 12.5156 3.375C10.1911 3.375 8.6815 4.58659 8.29684 7.27498V8.24998H6.18747V11.175H8.29684V17.9999L1 17.9999C0.444654 17.9999 0 17.5551 0 16.9999V0.999996C0 0.444723 0.444654 0 1 0H17C17.5551 0 17.9999 0.444723 18 0.999996Z" fill="#969696"/>
</svg>
