<svg width="20" height="16" viewBox="0 0 20 16" fill="none" xmlns="http://www.w3.org/2000/svg">
<path d="M20 1.84144C19.2641 2.15377 18.4733 2.36486 17.6433 2.4598C18.4905 1.97376 19.1411 1.20417 19.4475 0.287197C18.6547 0.737177 17.7765 1.064 16.8419 1.24016C16.0933 0.476935 15.027 0 13.8468 0C11.5807 0 9.74344 1.75826 9.74344 3.92694C9.74344 4.23472 9.7798 4.53445 9.84974 4.82186C6.43952 4.6581 3.41607 3.09469 1.3923 0.718833C1.0391 1.29883 0.836753 1.97341 0.836753 2.69309C0.836753 4.05549 1.56121 5.25749 2.6622 5.96169C1.98954 5.94131 1.35689 5.76467 0.803614 5.47054C0.803321 5.48692 0.803321 5.50337 0.803321 5.5199C0.803321 7.4226 2.21771 9.00981 4.09481 9.37052C3.75047 9.46028 3.38798 9.50824 3.01372 9.50824C2.74933 9.50824 2.49226 9.48367 2.24178 9.43781C2.76389 10.998 4.27923 12.1333 6.07477 12.1651C4.67047 13.2183 2.9012 13.8461 0.978822 13.8461C0.647646 13.8461 0.321007 13.8275 0 13.7913C1.81587 14.9055 3.97271 15.5556 6.28992 15.5556C13.8372 15.5556 17.9644 9.57167 17.9644 4.38231C17.9644 4.21204 17.9604 4.04267 17.9525 3.87429C18.7542 3.32062 19.4499 2.62895 20 1.84144Z" fill="#969696"/>
</svg>
