<svg width="24" height="24" viewBox="0 0 24 24" fill="none" xmlns="http://www.w3.org/2000/svg">
<path d="M2.57143 0C1.16168 0 0 1.16169 0 2.57143V8.57143C0 9.98117 1.16168 11.1429 2.57143 11.1429H8.57143C9.98117 11.1429 11.1429 9.98117 11.1429 8.57143V2.57143C11.1429 1.16169 9.98117 0 8.57143 0H2.57143Z" fill="#969696"/>
<path d="M15.4285 0C14.0188 0 12.8571 1.16169 12.8571 2.57143V8.57143C12.8571 9.98117 14.0188 11.1429 15.4285 11.1429H21.4285C22.8383 11.1429 24 9.98117 24 8.57143V2.57143C24 1.16169 22.8383 0 21.4285 0H15.4285Z" fill="#969696"/>
<path d="M2.57143 12.8571C1.16168 12.8571 0 14.0188 0 15.4286V21.4286C0 22.8383 1.16168 24 2.57143 24H8.57143C9.98117 24 11.1429 22.8383 11.1429 21.4286V15.4286C11.1429 14.0188 9.98117 12.8571 8.57143 12.8571H2.57143Z" fill="#969696"/>
<path d="M15.4285 12.8571C14.0188 12.8571 12.8571 14.0188 12.8571 15.4286V21.4286C12.8571 22.8383 14.0188 24 15.4285 24H21.4285C22.8383 24 24 22.8383 24 21.4286V15.4286C24 14.0188 22.8383 12.8571 21.4285 12.8571H15.4285Z" fill="#969696"/>
</svg>
