<svg width="22" height="24" viewBox="0 0 22 24" fill="none" xmlns="http://www.w3.org/2000/svg">
<path d="M10.9997 5.12842C11.4544 5.12842 11.8334 4.74947 11.8334 4.29474V0.833684C11.8334 0.378947 11.4544 0 10.9997 0C10.545 0 10.166 0.378947 10.166 0.833684V4.29474C10.166 4.74947 10.545 5.12842 10.9997 5.12842Z" fill="white" fill-opacity="0.4"/>
<path d="M0.919831 7.14947L3.92615 8.86737C4.05246 8.94316 4.20404 8.96842 4.35562 8.96842C4.63352 8.96842 4.93667 8.81684 5.08825 8.53895C5.31562 8.13474 5.1893 7.62947 4.78509 7.40211L1.75351 5.68421C1.3493 5.45684 0.844041 5.58316 0.616673 5.98737C0.364041 6.39158 0.51562 6.92211 0.919831 7.14947Z" fill="white" fill-opacity="0.4"/>
<path d="M5.06299 15.4358C4.83562 15.0316 4.33036 14.9053 3.92615 15.1326L0.919833 16.8505C0.515623 17.0779 0.389307 17.5832 0.616675 17.9874C0.768254 18.2653 1.04615 18.4168 1.34931 18.4168C1.50089 18.4168 1.6272 18.3916 1.77878 18.3158L4.7851 16.5979C5.13878 16.3453 5.29036 15.84 5.06299 15.4358Z" fill="white" fill-opacity="0.4"/>
<path d="M10.9997 18.8716C10.545 18.8716 10.166 19.2505 10.166 19.7053V23.1663C10.166 23.6211 10.545 24 10.9997 24C11.4544 24 11.8334 23.6211 11.8334 23.1663V19.7053C11.8334 19.2505 11.4544 18.8716 10.9997 18.8716Z" fill="white" fill-opacity="0.4"/>
<path d="M21.0797 16.8505L18.0733 15.1326C17.6691 14.9053 17.1639 15.0316 16.9365 15.4358C16.7091 15.84 16.8354 16.3453 17.2397 16.5726L20.246 18.3158C20.3723 18.3916 20.5239 18.4168 20.6754 18.4168C20.9533 18.4168 21.2565 18.2653 21.4081 17.9874C21.6354 17.6084 21.4839 17.0779 21.0797 16.8505Z" fill="white" fill-opacity="0.4"/>
<path d="M16.9366 8.56422C17.0882 8.84212 17.3661 8.99369 17.6692 8.99369C17.8208 8.99369 17.9471 8.96843 18.0987 8.89264L21.105 7.17475C21.5092 6.94738 21.6355 6.44212 21.4082 6.03791C21.1808 5.63369 20.6755 5.50738 20.2713 5.73475L17.265 7.45264C16.8608 7.65475 16.7092 8.16001 16.9366 8.56422Z" fill="white" fill-opacity="0.4"/>
<path d="M10.9996 17.3053C13.9296 17.3053 16.3049 14.93 16.3049 12C16.3049 9.06998 13.9296 6.69473 10.9996 6.69473C8.06958 6.69473 5.69434 9.06998 5.69434 12C5.69434 14.93 8.06958 17.3053 10.9996 17.3053Z" fill="white" fill-opacity="0.4"/>
</svg>
